<svg width="37" height="25" xmlns="http://www.w3.org/2000/svg"><path d="M31.717 13.894H29.5c.15-.388.504-1.325 1.06-2.812l.049-.142c.042-.105.096-.24.16-.408a6.62 6.62 0 0 0 .145-.409l.192.864.61 2.907zm-23.19-1.021l-.931-4.635c-.118-.566-.52-.848-1.205-.848H2.088l-.032.204c3.33.827 5.486 2.587 6.471 5.279zm2.875-5.483L8.8 14.27l-.273-1.397c-.278-.734-.733-1.412-1.365-2.035a6.238 6.238 0 0 0-2.103-1.39l2.168 8.012h2.81l4.191-10.07h-2.826zm2.232 10.086H16.3L17.97 7.39h-2.666l-1.67 10.086zM25.967 7.64a6.637 6.637 0 0 0-2.392-.424c-1.317 0-2.393.309-3.228.927-.835.618-1.258 1.419-1.269 2.403-.01 1.069.766 1.98 2.329 2.734.514.241.872.456 1.076.644.203.189.305.393.305.613 0 .314-.16.555-.482.723a2.36 2.36 0 0 1-1.108.25c-.92 0-1.756-.172-2.505-.517l-.354-.173-.369 2.262c.792.356 1.783.534 2.971.534 1.392.01 2.508-.298 3.348-.927.84-.628 1.272-1.466 1.293-2.513 0-1.11-.75-2.022-2.248-2.734-.525-.262-.905-.482-1.14-.66-.236-.178-.354-.377-.354-.597 0-.23.131-.432.394-.605.262-.173.64-.259 1.132-.259.75-.01 1.413.115 1.991.377l.241.126.37-2.184zm6.826-.251h-2.056c-.696 0-1.162.282-1.397.848l-3.95 9.238h2.794l.562-1.508h3.404c.054.23.16.733.321 1.508h2.473L32.793 7.39zM37 2.362v20.11c0 .544-.203 1.016-.61 1.414a1.997 1.997 0 0 1-1.446.597H2.056a1.997 1.997 0 0 1-1.446-.597c-.407-.398-.61-.87-.61-1.414V2.362C0 1.818.203 1.346.61.948A1.997 1.997 0 0 1 2.056.351h32.888c.557 0 1.039.2 1.446.597.407.398.61.87.61 1.414z" fill="#BDBDBD" fill-rule="evenodd"/></svg>
