<svg width="37" height="25" xmlns="http://www.w3.org/2000/svg"><path d="M11.964 12.574c0 .388-.137.71-.41.966a1.41 1.41 0 0 1-1.003.385c-.31 0-.56-.084-.747-.251-.187-.168-.281-.398-.281-.691 0-.388.134-.715.401-.982.268-.267.6-.401.996-.401.3 0 .549.086.747.26.198.172.297.41.297.714zm12.606-2.34c0 .44-.117.738-.353.895-.236.157-.589.235-1.06.235l-.514.016.273-1.68c.022-.116.091-.174.209-.174h.29c.235 0 .422.01.561.032a.8.8 0 0 1 .402.196c.128.11.192.27.192.48zm5.637 2.34c0 .377-.136.697-.41.958a1.375 1.375 0 0 1-.987.393c-.31 0-.562-.084-.755-.251-.193-.168-.289-.398-.289-.691 0-.388.134-.715.402-.982.267-.267.6-.401.995-.401.3 0 .549.086.747.26.198.172.297.41.297.714zM8.238 9.888c0-.618-.206-1.066-.618-1.344-.412-.277-.95-.416-1.614-.416h-2.57c-.203 0-.315.1-.337.299l-1.043 6.41c-.011.062.005.12.048.172a.2.2 0 0 0 .16.079h1.22c.215 0 .333-.1.354-.299l.29-1.728a.304.304 0 0 1 .112-.204.5.5 0 0 1 .24-.102 1.7 1.7 0 0 1 .273-.024c.086 0 .188.005.306.016.117.01.192.016.224.016.921 0 1.644-.254 2.168-.762.525-.508.787-1.213.787-2.113zm3.357 4.618l-.003.007.003-.007zm-.003.007c-.041.123-.062.23-.062.323 0 .168.07.252.21.252h1.107c.204 0 .321-.1.354-.299l.658-4.1a.207.207 0 0 0-.048-.173.2.2 0 0 0-.16-.079H12.43c-.15 0-.241.173-.273.519-.29-.419-.798-.629-1.526-.629-.77 0-1.426.283-1.967.849-.54.565-.811 1.23-.811 1.995 0 .618.185 1.11.554 1.477.37.366.864.55 1.485.55.3 0 .61-.063.932-.189.321-.125.578-.293.77-.503l-.002.007zm8.787-3.856a.22.22 0 0 0-.064-.149.192.192 0 0 0-.145-.07h-1.236a.342.342 0 0 0-.29.157l-1.702 2.45-.706-2.356c-.054-.168-.172-.252-.354-.252h-1.204a.192.192 0 0 0-.145.071.22.22 0 0 0-.064.15c0 .02.105.33.313.926.21.597.434 1.241.675 1.933.24.691.366 1.058.377 1.1-.878 1.173-1.317 1.8-1.317 1.885 0 .136.07.204.21.204h1.236a.342.342 0 0 0 .289-.157l4.095-5.782c.021-.02.032-.057.032-.11zm6.102-.77c0-.617-.206-1.065-.618-1.343-.412-.277-.95-.416-1.614-.416h-2.553c-.214 0-.332.1-.354.299l-1.043 6.41c-.011.062.005.12.048.172a.2.2 0 0 0 .16.079h1.317c.129 0 .214-.068.257-.204l.29-1.823a.304.304 0 0 1 .112-.204.5.5 0 0 1 .24-.102 1.7 1.7 0 0 1 .274-.024c.085 0 .187.005.305.016.117.01.192.016.224.016.921 0 1.644-.254 2.168-.762.525-.508.787-1.213.787-2.113zm4.963 4.902l.658-4.1a.207.207 0 0 0-.048-.173.2.2 0 0 0-.16-.079h-1.221c-.15 0-.241.173-.273.519-.279-.419-.787-.629-1.526-.629-.77 0-1.426.283-1.967.849-.54.565-.811 1.23-.811 1.995 0 .618.185 1.11.554 1.477.37.366.864.55 1.485.55.31 0 .627-.063.948-.189.321-.125.573-.293.755-.503 0 .011-.011.058-.032.142a.842.842 0 0 0-.033.188c0 .168.07.252.21.252h1.107c.204 0 .321-.1.354-.299zm3.5-6.425v-.016c0-.147-.07-.22-.208-.22h-1.189c-.117 0-.187.058-.208.173l-1.044 6.535-.016.032a.22.22 0 0 0 .064.15c.043.046.096.07.16.07h1.06c.204 0 .316-.1.338-.299l1.043-6.425zM6.295 10.469c-.053.366-.193.607-.417.723-.225.115-.546.172-.964.172l-.53.016.273-1.68c.022-.116.091-.174.209-.174h.305c.428 0 .739.06.931.18.193.121.257.375.193.763zM37 2.362v20.11c0 .544-.203 1.016-.61 1.414a1.997 1.997 0 0 1-1.446.597H2.056a1.997 1.997 0 0 1-1.446-.597c-.407-.398-.61-.87-.61-1.414V2.362C0 1.818.203 1.346.61.948A1.997 1.997 0 0 1 2.056.351h32.888c.557 0 1.039.2 1.446.597.407.398.61.87.61 1.414z" fill="#BDBDBD" fill-rule="evenodd"/></svg>
