<svg width="37" height="25" xmlns="http://www.w3.org/2000/svg"><path d="M5.026 10.547c0 .535-.192.974-.578 1.32-.31.272-.787.409-1.429.409h-.273V8.819h.273c.653 0 1.13.142 1.43.424.385.325.577.76.577 1.304zm28.521-1.02c0 .544-.342.816-1.027.816h-.306V8.756h.322c.674 0 1.011.257 1.011.77zm-27.445 1.02c0-.775-.267-1.406-.803-1.893-.535-.487-1.225-.73-2.071-.73H1.702v5.231h1.526c.792 0 1.43-.199 1.91-.597.643-.534.964-1.204.964-2.01zm.482 2.608h1.044V7.924H6.584v5.231zm5.14-1.586c0-.42-.11-.744-.33-.974-.22-.23-.624-.45-1.213-.66-.31-.105-.521-.205-.634-.299a.45.45 0 0 1-.169-.361c0-.168.073-.306.217-.416a.89.89 0 0 1 .554-.165c.31 0 .594.141.851.424l.546-.691a2.298 2.298 0 0 0-1.573-.582c-.471 0-.868.144-1.189.432a1.37 1.37 0 0 0-.481 1.06c0 .367.096.658.289.873.192.214.535.406 1.027.573.396.136.637.236.723.299a.595.595 0 0 1 .305.534c0 .21-.075.385-.225.526a.808.808 0 0 1-.578.212c-.514 0-.894-.23-1.14-.691l-.674.628c.47.67 1.086 1.006 1.846 1.006.546 0 .99-.16 1.333-.48.343-.319.514-.735.514-1.248zm4.463 1.414v-1.21c-.396.387-.813.581-1.252.581-.525 0-.956-.17-1.293-.51-.337-.34-.506-.773-.506-1.297 0-.502.169-.93.506-1.28.337-.35.752-.526 1.245-.526.46 0 .894.199 1.3.597v-1.21a2.902 2.902 0 0 0-1.284-.314c-.792 0-1.464.264-2.016.793a2.585 2.585 0 0 0-.827 1.94c0 .765.273 1.412.82 1.94.545.53 1.214.794 2.007.794.45 0 .883-.1 1.3-.298zm19.785 9.489v-8.28c-.696.42-1.47.86-2.32 1.32-.851.46-2.123 1.073-3.814 1.838a79.462 79.462 0 0 1-5.292 2.16c-1.836.676-4.07 1.38-6.704 2.113a90.777 90.777 0 0 1-8.094 1.854h25.196c.279 0 .52-.1.723-.298a.956.956 0 0 0 .305-.707zM22.306 10.579a2.71 2.71 0 0 0-.851-2.011 2.832 2.832 0 0 0-2.056-.833c-.803 0-1.488.278-2.055.833a2.71 2.71 0 0 0-.851 2.01c0 .786.283 1.457.85 2.012a2.832 2.832 0 0 0 2.056.832c.803 0 1.488-.277 2.056-.832a2.71 2.71 0 0 0 .851-2.011zm2.441 2.718l2.312-5.373h-1.14l-1.445 3.519-1.43-3.52h-1.14l2.28 5.374h.563zm2.778-.142h2.955v-.88h-1.911v-1.413h1.847v-.88h-1.847V8.819h1.911v-.895h-2.955v5.231zm6.28 0h1.284l-1.686-2.2c.813-.167 1.22-.659 1.22-1.476 0-.492-.166-.874-.498-1.147-.331-.272-.797-.408-1.397-.408h-1.557v5.231h1.043v-2.09h.145l1.445 2.09zM37 2.457v19.92c0 .587-.206 1.084-.618 1.493a2.054 2.054 0 0 1-1.502.613H2.12c-.589 0-1.09-.205-1.502-.613A2.022 2.022 0 0 1 0 22.377V2.457C0 1.87.206 1.373.618.964A2.054 2.054 0 0 1 2.12.351h32.76c.589 0 1.09.205 1.502.613.412.409.618.906.618 1.493z" fill="#BDBDBD" fill-rule="evenodd"/></svg>
