<svg width="46" height="46" xmlns="http://www.w3.org/2000/svg"><g fill="#E5CA37" fill-rule="nonzero"><path d="M22.5 30a2.503 2.503 0 0 0-2.5 2.5c0 1.379 1.122 2.5 2.5 2.5s2.5-1.121 2.5-2.5-1.121-2.5-2.5-2.5zm0 3.077a.578.578 0 1 1 .001-1.155.578.578 0 0 1-.001 1.155zM29.707 27.293A1.008 1.008 0 0 0 29 27a1.003 1.003 0 0 0-.707 1.707c.186.186.444.293.707.293.263 0 .521-.107.707-.293.186-.186.293-.444.293-.707 0-.263-.107-.521-.293-.707z"/><path d="M41.508 12.936h-.969L27.866.263a.899.899 0 0 0-1.27 0L23.348 3.51 10.364.03a.898.898 0 0 0-1.1.636l-3.288 12.27H3.773a3.778 3.778 0 0 0-3.77 3.922.893.893 0 0 0-.003.075v24.575A4.497 4.497 0 0 0 4.492 46h32.164l.042-.001h4.81A4.497 4.497 0 0 0 46 41.507V17.428a4.497 4.497 0 0 0-4.492-4.492zm-.803 1.797h.803a2.698 2.698 0 0 1 2.695 2.695v7.2c0 1.175-.955 2.13-2.13 2.13h-.924v-3.58a4.497 4.497 0 0 0-4.4-4.49l3.956-3.955zM24.253 5.147l2.978-2.978L38.98 13.918l-4.74 4.739h-1.643l2.15-2.15c.35-.35.35-.92 0-1.27a1.867 1.867 0 0 1 0-2.638c.35-.351.35-.92 0-1.271L29.82 6.402a.899.899 0 0 0-1.27 0 1.867 1.867 0 0 1-2.638 0 .899.899 0 0 0-1.27 0L12.385 18.657h-1.644l13.51-13.51zm-2.645 10.135a4.294 4.294 0 0 0-4.188 3.375h-2.493L25.355 8.229c1.151.686 2.6.686 3.751 0l3.813 3.813a3.675 3.675 0 0 0 0 3.751l-2.864 2.864h-4.258a4.294 4.294 0 0 0-4.189-3.375zm2.317 3.375h-4.633a2.494 2.494 0 0 1 2.317-1.579c1.05 0 1.952.656 2.316 1.579zM9.793 17.065l2.38-8.88a3.641 3.641 0 0 0 1.882-.49 3.64 3.64 0 0 0 1.367-1.385l4.043 1.083-5.868 5.868-3.804 3.804zM10.766 2l11.116 2.978-.95.95-5.806-1.557a.898.898 0 0 0-1.1.635 1.854 1.854 0 0 1-.87 1.133c-.431.25-.934.315-1.415.186a.898.898 0 0 0-1.1.636L7.498 18.686H6.295L10.766 2zM3.773 14.733h1.72l-1.058 3.953h-.662a1.979 1.979 0 0 1-1.976-1.976c0-1.09.887-1.977 1.976-1.977zm40.43 26.774a2.698 2.698 0 0 1-2.695 2.695h-1.26c.565-.751.9-1.684.9-2.694v-3.61h.54c.938 0 1.807-.302 2.515-.813v4.422zm0-7.921a2.518 2.518 0 0 1-2.515 2.516H22.82a3.778 3.778 0 0 1-3.773-3.774 3.778 3.778 0 0 1 3.773-3.773h2.723a.898.898 0 0 0 0-1.797H22.82a5.577 5.577 0 0 0-5.57 5.57 5.577 5.577 0 0 0 5.57 5.57h16.532v3.61a2.699 2.699 0 0 1-2.654 2.695H6.109V34.086a.898.898 0 0 0-1.797 0v10.11a2.698 2.698 0 0 1-2.515-2.688V19.922a3.75 3.75 0 0 0 1.976.56h32.883a2.698 2.698 0 0 1 2.696 2.696v3.58h-6.497a.898.898 0 0 0 0 1.797h9.219c.784 0 1.515-.232 2.13-.63v5.661z"/><path d="M5.707 30.293A1.008 1.008 0 0 0 5 30c-.263 0-.521.107-.707.293A1.008 1.008 0 0 0 4 31c0 .263.107.521.293.707.186.186.444.293.707.293.263 0 .521-.107.707-.293.186-.186.293-.444.293-.707 0-.263-.107-.521-.293-.707z"/></g></svg>
