<svg width="42" height="42" xmlns="http://www.w3.org/2000/svg"><g fill="#E5CA37" fill-rule="nonzero"><path d="M28 23c-2.206 0-4 1.794-4 4s1.794 4 4 4 4-1.794 4-4-1.794-4-4-4zm0 6.667A2.67 2.67 0 0 1 25.333 27 2.67 2.67 0 0 1 28 24.333 2.67 2.67 0 0 1 30.667 27 2.67 2.67 0 0 1 28 29.667z"/><path d="M29.75 30v2.951l-.904-.688a.559.559 0 0 0-.693 0l-.903.688V30H26v4.286c0 .263.127.505.33.63a.56.56 0 0 0 .642-.036l1.528-1.164 1.528 1.164a.564.564 0 0 0 .642.036.735.735 0 0 0 .33-.63V30h-1.25zM16 7h9v2h-9zM10 11h23v2H10zM10 16h16v2H10zM28 16h5v2h-5zM10 19h23v2H10zM10 24h8v2h-8zM10 27h4v2h-4zM16 27h2v2h-2zM38.5 0C36.57 0 35 1.402 35 3.125v1.25c0 .345.313.625.7.625h5.6c.387 0 .7-.28.7-.625v-1.25C42 1.402 40.43 0 38.5 0zm2.1 3.75h-4.2v-.625c0-1.034.942-1.875 2.1-1.875 1.158 0 2.1.841 2.1 1.875v.625z"/><path d="M38.292 0H8.542C6.589 0 5 1.57 5 3.5v33.6h1.417V3.5c0-1.158.953-2.1 2.125-2.1H35.46a3.455 3.455 0 0 0-.71 2.1v35c0 1.158-.953 2.1-2.125 2.1H5.708V42h26.917c1.953 0 3.542-1.57 3.542-3.5v-35c0-1.158.953-2.1 2.125-2.1A.704.704 0 0 0 39 .7c0-.386-.317-.7-.708-.7z"/><path d="M33.292 40.75c-1.172 0-2.125-.841-2.125-1.875v-1.25c0-.346-.317-.625-.709-.625H.708c-.39 0-.708.28-.708.625v1.25C0 40.598 1.589 42 3.542 42h29.75c.391 0 .708-.28.708-.625 0-.346-.317-.625-.708-.625zm-29.75 0c-1.172 0-2.125-.841-2.125-1.875v-.625H29.75v.625c0 .703.264 1.352.71 1.875H3.542z"/></g></svg>
