<svg width="34" height="47" xmlns="http://www.w3.org/2000/svg"><g fill="#E5CA37" fill-rule="nonzero"><path d="M30.803 3.248h-5.86a2.389 2.389 0 0 0-2.26-1.624h-2.477A4.012 4.012 0 0 0 17 0a4.012 4.012 0 0 0-3.206 1.624h-2.478a2.389 2.389 0 0 0-2.26 1.624H3.198A3.201 3.201 0 0 0 0 6.446v37.356A3.201 3.201 0 0 0 3.197 47h27.606A3.201 3.201 0 0 0 34 43.802V6.446a3.201 3.201 0 0 0-3.197-3.198zM9.057 8.02a2.389 2.389 0 0 0 2.26 1.625h11.367a2.389 2.389 0 0 0 2.26-1.625h4.286v34.21H4.77V8.019h4.287zm2.26-4.872h2.886a.761.761 0 0 0 .658-.379 2.46 2.46 0 0 1 4.278 0 .761.761 0 0 0 .658.379h2.887c.475 0 .862.387.862.863V7.259a.864.864 0 0 1-.863.862H11.316a.864.864 0 0 1-.862-.861v-.002V4.01c0-.476.387-.863.862-.863zm21.16 40.655c0 .924-.75 1.675-1.674 1.675H3.197a1.677 1.677 0 0 1-1.675-1.675V6.446c0-.924.752-1.675 1.675-1.675h5.734v1.726H4.01c-.42 0-.761.34-.761.761V42.99c0 .42.34.762.761.762h25.982c.42 0 .761-.341.761-.762V7.258c0-.42-.34-.761-.761-.761h-4.922V4.77h5.734c.923 0 1.675.751 1.675 1.675v37.356z"/><path d="M16.5 6c.276 0 .5-.325.5-.726V3.726c0-.401-.224-.726-.5-.726s-.5.325-.5.726v1.548c0 .401.224.726.5.726zM18.833 16h5.334c.46 0 .833-.224.833-.5s-.373-.5-.833-.5h-5.334c-.46 0-.833.224-.833.5s.373.5.833.5zM18.79 20h8.42c.437 0 .79-.224.79-.5s-.353-.5-.79-.5h-8.42c-.437 0-.79.224-.79.5s.353.5.79.5zM10.653 18.8c.148.133.342.2.537.2a.804.804 0 0 0 .537-.2l4.05-3.636a.634.634 0 0 0 0-.964.822.822 0 0 0-1.074 0l-3.513 3.154-1.893-1.7a.822.822 0 0 0-1.075 0 .634.634 0 0 0 0 .965l2.43 2.181zM18.833 25h5.334c.46 0 .833-.224.833-.5s-.373-.5-.833-.5h-5.334c-.46 0-.833.224-.833.5s.373.5.833.5zM18.79 28h8.42c.437 0 .79-.224.79-.5s-.353-.5-.79-.5h-8.42c-.437 0-.79.224-.79.5s.353.5.79.5zM10.653 27.8c.148.133.342.2.537.2a.804.804 0 0 0 .537-.2l4.05-3.636a.634.634 0 0 0 0-.964.822.822 0 0 0-1.074 0l-3.513 3.154-1.893-1.7a.822.822 0 0 0-1.075 0 .634.634 0 0 0 0 .965l2.43 2.181zM18.833 33h5.334c.46 0 .833-.224.833-.5s-.373-.5-.833-.5h-5.334c-.46 0-.833.224-.833.5s.373.5.833.5zM18.79 36h8.42c.437 0 .79-.224.79-.5s-.353-.5-.79-.5h-8.42c-.437 0-.79.224-.79.5s.353.5.79.5zM10.653 35.8c.148.133.342.2.537.2a.804.804 0 0 0 .537-.2l4.05-3.636a.634.634 0 0 0 0-.964.822.822 0 0 0-1.074 0l-3.513 3.154-1.893-1.7a.822.822 0 0 0-1.075 0 .634.634 0 0 0 0 .965l2.43 2.181z"/></g></svg>
