<svg width="47" height="47" xmlns="http://www.w3.org/2000/svg"><g fill="#E5CA37" fill-rule="nonzero"><path d="M43.21 9.097h-9.895C32.91 4.015 28.655 0 23.469 0c-5.185 0-9.441 4.015-9.845 9.097H3.79c-2.09 0-3.79 1.7-3.79 3.79v25.774c0 2.09 1.7 3.79 3.79 3.79h8.339v3.033H9.097V47h28.806v-1.516h-3.032v-3.032h8.339c2.09 0 3.79-1.7 3.79-3.79V12.886c0-2.09-1.7-3.79-3.79-3.79zm-28.11.789c0-4.615 3.755-8.37 8.369-8.37 4.615 0 8.37 3.755 8.37 8.37v5.275h-1.516V9.886a6.862 6.862 0 0 0-6.854-6.854 6.862 6.862 0 0 0-6.854 6.854v5.275H15.1V9.886zm13.706.727v4.548H18.132v-4.548h10.674zM18.197 9.097c.384-2.57 2.598-4.549 5.273-4.549 2.674 0 4.888 1.98 5.272 4.549H18.197zm-4.552 7.58h19.648a.76.76 0 0 1 .758.758v15.162a.76.76 0 0 1-.758.758H13.645a.76.76 0 0 1-.758-.758V17.435a.76.76 0 0 1 .758-.758zm19.71 28.807h-19.71v-3.032h19.71v3.032zm12.129-6.823a2.277 2.277 0 0 1-2.274 2.274H3.79a2.277 2.277 0 0 1-2.274-2.274v-.758h43.968v.758zm0-2.274H1.516v-23.5a2.277 2.277 0 0 1 2.274-2.274h9.794v4.554a2.273 2.273 0 0 0-2.213 2.268v15.162a2.277 2.277 0 0 0 2.274 2.274h19.648a2.277 2.277 0 0 0 2.275-2.274V17.435a2.273 2.273 0 0 0-2.213-2.268v-4.554h9.855a2.277 2.277 0 0 1 2.274 2.274v23.5z"/><path d="M20.4 24.485V31h4.2v-6.515A3.654 3.654 0 0 0 26 21.61C26 19.62 24.43 18 22.5 18S19 19.62 19 21.611c0 1.129.528 2.196 1.4 2.874zm2.1-5.04c1.158 0 2.1.972 2.1 2.166 0 .772-.393 1.47-1.052 1.864l-.348.209v5.872h-1.4v-5.872l-.348-.209a2.156 2.156 0 0 1-1.052-1.864c0-1.194.942-2.167 2.1-2.167zM36 23h2v2h-2zM39 23h2v2h-2zM5 23h2v2H5zM8 23h2v2H8z"/></g></svg>
