<svg width="32" height="37" xmlns="http://www.w3.org/2000/svg"><g fill="#E5CA37" fill-rule="nonzero"><circle cx="20" cy="32" r="1"/><circle cx="22" cy="32" r="1"/><circle cx="24" cy="32" r="1"/><circle cx="18" cy="21" r="1"/><circle cx="20" cy="14" r="1"/><circle cx="22" cy="14" r="1"/><circle cx="21" cy="13" r="1"/><circle cx="22" cy="11" r="1"/><circle cx="20" cy="16" r="1"/><circle cx="18" cy="15" r="1"/><circle cx="21" cy="15" r="1"/><circle cx="18" cy="22" r="1"/><circle cx="18" cy="25" r="1"/><circle cx="18" cy="26" r="1"/><circle cx="18" cy="29" r="1"/><circle cx="18" cy="30" r="1"/><circle cx="21" cy="31" r="1"/><circle cx="24" cy="31" r="1"/><path d="M12.429 7H9.57C9.256 7 9 7.447 9 8c0 .553.256 1 .571 1h2.858c.315 0 .571-.447.571-1 0-.553-.256-1-.571-1zM12.333 11H5.667C5.299 11 5 11.447 5 12c0 .553.299 1 .667 1h6.666c.368 0 .667-.447.667-1 0-.553-.299-1-.667-1zM11.412 15H2.588C2.264 15 2 15.447 2 16c0 .553.264 1 .588 1h8.824c.324 0 .588-.447.588-1 0-.553-.264-1-.588-1zM12.381 20H.619C.277 20 0 20.447 0 21c0 .553.277 1 .619 1h11.762c.342 0 .619-.447.619-1 0-.553-.277-1-.619-1zM11.4 24H3.6c-.331 0-.6.447-.6 1 0 .553.269 1 .6 1h7.8c.331 0 .6-.447.6-1 0-.553-.269-1-.6-1zM12.444 28H8.556C8.249 28 8 28.447 8 29c0 .553.249 1 .556 1h3.888c.307 0 .556-.447.556-1 0-.553-.249-1-.556-1zM30.222 33.3H27.26v-3.7c0-4.681-2.457-8.905-6.349-11.1 3.892-2.195 6.35-6.419 6.35-11.1V3.7h2.962c.98 0 1.778-.83 1.778-1.85S31.202 0 30.222 0h-13.63A.605.605 0 0 0 16 .617c0 .34.265.616.593.616h13.63c.326 0 .592.277.592.617 0 .34-.266.617-.593.617H16.593a.605.605 0 0 0-.593.616c0 .341.265.617.593.617h9.481v3.7c0 4.62-2.647 8.752-6.744 10.53h-.001-.002c-.006.004-.01.01-.017.013a.59.59 0 0 0-.173.122.59.59 0 0 0-.096.149c-.01.018-.025.03-.032.05a.64.64 0 0 0 0 .474.602.602 0 0 0 .113.178c.013.014.028.026.042.04.041.037.085.068.134.093.011.005.018.016.03.02 4.098 1.777 6.746 5.91 6.746 10.531v3.7a.605.605 0 0 0-.593-.617.605.605 0 0 0-.592.617h-1.185a.605.605 0 0 0-.593-.617.605.605 0 0 0-.592.617h-1.186a.605.605 0 0 0-.592-.617.605.605 0 0 0-.593.617h-1.185a.605.605 0 0 0-.593-.617.605.605 0 0 0-.592.617h-1.185a.605.605 0 0 0-.593.617c0 .34.265.616.593.616H30.222c.327 0 .593.277.593.617 0 .34-.266.617-.593.617h-13.63a.605.605 0 0 0-.592.616c0 .341.265.617.593.617h13.63c.98 0 1.777-.83 1.777-1.85s-.798-1.85-1.778-1.85z"/></g></svg>
