<svg width="38" height="38" xmlns="http://www.w3.org/2000/svg"><g fill="#E5CA37" fill-rule="nonzero"><path d="M32.766 10.992l-6.864-4.886a.576.576 0 0 0-.794.124.55.55 0 0 0 .126.778l6.864 4.886a.573.573 0 0 0 .794-.124.55.55 0 0 0-.126-.778zM13.993 8.583c-.052-.377-.358-.634-.684-.574L4.504 9.626c-.326.06-.548.414-.497.791.047.34.3.583.59.583a.518.518 0 0 0 .094-.009l8.805-1.617c.326-.06.548-.414.497-.791z"/><path d="M37.758 9.758L24.59.113a.582.582 0 0 0-.82.131l-5.742 7.978-.79-5.026a.593.593 0 0 0-.235-.386.583.583 0 0 0-.437-.106L.495 5.277a.591.591 0 0 0-.488.677l3.14 19.954a.593.593 0 0 0 .579.499c.03 0 .06-.003.092-.007l3.692-.592v6.351a.59.59 0 0 0 .587.592H24.37a.59.59 0 0 0 .587-.592V30.49a7.469 7.469 0 0 0 1.135-.807l1.462 1.475-.47.474a.596.596 0 0 0 0 .837l5.31 5.358a.582.582 0 0 0 .83 0l1.771-1.786a.595.595 0 0 0 0-.837l-5.31-5.357a.584.584 0 0 0-.83 0l-.47.474-1.463-1.475a7.52 7.52 0 0 0 1.767-5.481l9.199-12.78a.595.595 0 0 0-.13-.827zm-8.489 21.344l4.481 4.52-.94.95-4.481-4.521.94-.949zM7.51 11.956v2.426l-1.737.278a.591.591 0 0 0-.487.677.588.588 0 0 0 .671.492l1.553-.248v3.915l-.952.152a.591.591 0 0 0-.488.678.588.588 0 0 0 .672.491l.768-.123v3.916l-3.297.528L1.258 6.353l14.913-2.387.882 5.61-1.286 1.788h-7.67a.59.59 0 0 0-.587.592zm16.273 19.611H8.684V12.548h15.099v4.315a7.342 7.342 0 0 0-3.032-.431.585.585 0 0 0-.137-.017h-8.762a.59.59 0 0 0-.586.592.59.59 0 0 0 .586.592h5.368a7.513 7.513 0 0 0-1.707 1.513 7.484 7.484 0 0 0-1.326 2.354h-2.335a.59.59 0 0 0-.586.592.59.59 0 0 0 .586.592h2.03a7.62 7.62 0 0 0 .33 3.867h-2.36a.59.59 0 0 0-.586.592.59.59 0 0 0 .587.592h2.906a7.43 7.43 0 0 0 6.482 3.788c.88 0 1.732-.15 2.542-.448v.526zm1.91-3.123a6.308 6.308 0 0 1-1.59 1.168 6.185 6.185 0 0 1-2.863.693 6.27 6.27 0 0 1-5.61-3.466h-.001a6.328 6.328 0 0 1-.686-2.887c0-.587.08-1.17.238-1.733a6.316 6.316 0 0 1 1.232-2.346 6.265 6.265 0 0 1 7.69-1.58 6.332 6.332 0 0 1 3.398 4.969c.025.23.037.462.037.69a6.34 6.34 0 0 1-1.844 4.492zm2.699-6.682a7.5 7.5 0 0 0-3.435-4.348v-3.086l3.19 2.336a.58.58 0 0 0 .819-.131.595.595 0 0 0-.13-.827l-3.88-2.841v-.909a.59.59 0 0 0-.586-.592h-1.462l-1.163-.851a.583.583 0 0 0-.82.13.596.596 0 0 0 .02.721H17.217l.928-1.29 6.23-8.655 12.219 8.949-8.202 11.394z"/><path d="M22 19c-2.757 0-5 2.243-5 5s2.243 5 5 5 5-2.243 5-5-2.243-5-5-5zm0 8.819A3.823 3.823 0 0 1 18.181 24 3.823 3.823 0 0 1 22 20.181 3.823 3.823 0 0 1 25.819 24 3.823 3.823 0 0 1 22 27.819z"/><path d="M22.812 24.188a.643.643 0 0 0-.91 0l-1.714 1.715a.643.643 0 0 0 .91.909l1.714-1.715a.643.643 0 0 0 0-.909zM21.822 21.178a.608.608 0 0 0-.86 0l-1.784 1.784a.608.608 0 0 0 .86.86l1.784-1.784a.608.608 0 0 0 0-.86z"/></g></svg>
