<svg width="27" height="39" xmlns="http://www.w3.org/2000/svg"><g fill="#E5CA37" fill-rule="nonzero"><path d="M21.176 10.523a.61.61 0 0 0-.826-.321.673.673 0 0 0-.305.871 8.5 8.5 0 0 1 .71 3.427c0 4.514-3.479 8.186-7.755 8.186S5.245 19.014 5.245 14.5c0-4.514 3.479-8.186 7.755-8.186 2.187 0 4.284.982 5.752 2.695a.6.6 0 0 0 .88.046.683.683 0 0 0 .043-.928C17.97 6.14 15.538 5 13 5c-4.963 0-9 4.262-9 9.5S8.037 24 13 24s9-4.262 9-9.5a9.867 9.867 0 0 0-.824-3.977z"/><path d="M26.064 14.342c0-.49.211-1.059.434-1.66.337-.909.686-1.848.391-2.773-.307-.963-1.189-1.548-1.967-2.065-.51-.34-.993-.66-1.256-1.028-.269-.376-.422-.949-.583-1.555-.242-.907-.516-1.935-1.309-2.522-.785-.582-1.779-.534-2.74-.488-.62.03-1.207.058-1.65-.089-.413-.136-.854-.5-1.32-.884C15.335.678 14.511 0 13.5 0s-1.836.679-2.563 1.278c-.467.385-.908.748-1.32.884-.444.147-1.03.119-1.651.089-.961-.046-1.955-.094-2.74.488-.793.588-1.067 1.615-1.309 2.522-.161.607-.314 1.18-.583 1.555-.263.369-.745.69-1.256 1.028C1.3 8.361.418 8.946.11 9.91c-.295.925.054 1.864.39 2.773.224.601.435 1.17.435 1.66 0 .491-.211 1.06-.434 1.661-.337.908-.686 1.848-.391 2.772.307.963 1.189 1.549 1.967 2.065.51.34.993.66 1.256 1.028.269.376.422.949.583 1.555.242.907.516 1.935 1.309 2.523.784.581 1.778.534 2.74.488.62-.03 1.207-.059 1.65.088.413.137.854.5 1.321.885.351.29.726.597 1.133.838L9.658 37.06l-2.226-2.528a.622.622 0 0 0-.652-.185l-3.187.99 1.998-7.302a.643.643 0 0 0-.437-.79.628.628 0 0 0-.775.445L2.073 36.12a.65.65 0 0 0 .167.631.62.62 0 0 0 .622.155l3.901-1.211 2.724 3.093a.624.624 0 0 0 1.075-.256l2.697-9.861c.08.008.16.014.24.014.082 0 .162-.006.241-.014l2.699 9.861a.635.635 0 0 0 .606.469.624.624 0 0 0 .468-.213l2.723-3.094 3.902 1.212c.22.068.458.009.623-.155a.65.65 0 0 0 .166-.63l-2.856-10.44c.569-.602.803-1.474 1.011-2.257.162-.606.315-1.18.583-1.555.263-.368.746-.689 1.257-1.028.778-.517 1.66-1.102 1.967-2.065.294-.925-.054-1.864-.391-2.772-.223-.602-.434-1.17-.434-1.66zm-2.657 20.996l-3.188-.99a.621.621 0 0 0-.651.185l-2.225 2.528-2.413-8.816c.407-.242.781-.55 1.133-.839.467-.384.908-.748 1.32-.884.444-.147 1.03-.119 1.651-.089.647.031 1.308.062 1.91-.097l2.463 9.002zm2.285-16.959c-.17.532-.794.947-1.457 1.387-.584.388-1.187.788-1.587 1.348-.405.566-.595 1.281-.78 1.973-.205.771-.4 1.5-.834 1.822-.427.316-1.162.281-1.94.244-.707-.034-1.437-.07-2.099.15-.634.21-1.187.665-1.723 1.106-.62.511-1.205.993-1.772.993s-1.152-.482-1.772-.993c-.536-.44-1.09-.897-1.723-1.106-.418-.139-.862-.176-1.31-.176-.264 0-.528.013-.789.026-.778.037-1.513.072-1.94-.244-.434-.323-.629-1.05-.834-1.822-.185-.692-.375-1.407-.78-1.973-.4-.56-1.003-.96-1.587-1.348-.663-.44-1.288-.855-1.457-1.387-.158-.496.099-1.19.37-1.923.254-.683.516-1.389.516-2.114 0-.725-.262-1.43-.515-2.114-.272-.733-.53-1.426-.371-1.923.17-.532.795-.947 1.457-1.386.584-.388 1.188-.789 1.587-1.348.405-.567.595-1.282.78-1.973.205-.771.4-1.5.834-1.822.427-.317 1.162-.281 1.94-.244.707.034 1.437.07 2.1-.15.633-.21 1.187-.666 1.722-1.107.62-.51 1.205-.993 1.772-.993s1.152.483 1.772.993c.536.441 1.09.897 1.723 1.107.662.219 1.392.184 2.098.15.779-.038 1.514-.073 1.94.244.435.322.63 1.05.835 1.822.185.691.375 1.406.78 1.973.4.559 1.003.96 1.587 1.348.662.439 1.288.854 1.457 1.386.158.497-.099 1.19-.37 1.923-.254.683-.516 1.39-.516 2.114 0 .725.262 1.431.515 2.114.272.734.53 1.427.371 1.923z"/><path d="M14.486 11h-3.972c-.284 0-.514.448-.514 1s.23 1 .514 1h3.972c.284 0 .514-.448.514-1s-.23-1-.514-1zM14.486 17h-3.972c-.284 0-.514.448-.514 1s.23 1 .514 1h3.972c.284 0 .514-.448.514-1s-.23-1-.514-1zM17.401 13H15.6c-.331 0-.599.448-.599 1s.268 1 .599 1H17.4c.331 0 .599-.448.599-1s-.268-1-.599-1zM13.452 13H9.548C9.245 13 9 13.448 9 14s.245 1 .548 1h3.904c.303 0 .548-.448.548-1s-.245-1-.548-1z"/></g></svg>
