<svg width="10" height="10" xmlns="http://www.w3.org/2000/svg"><path d="M8.865 4.062a.53.53 0 0 0-.389-.16H6.098V1.524a.53.53 0 0 0-.16-.389.53.53 0 0 0-.39-.16H4.452a.53.53 0 0 0-.389.16.53.53 0 0 0-.16.389v2.378H1.524a.53.53 0 0 0-.389.16.53.53 0 0 0-.16.39v1.097c0 .152.053.282.16.389a.53.53 0 0 0 .389.16h2.378v2.378a.53.53 0 0 0 .16.39.53.53 0 0 0 .39.16h1.097a.53.53 0 0 0 .389-.16.53.53 0 0 0 .16-.39V6.098h2.378a.53.53 0 0 0 .39-.16.53.53 0 0 0 .16-.389V4.451a.53.53 0 0 0-.161-.389z" fill="#4A9704" fill-rule="evenodd"/></svg>
