<svg width="35" height="44" xmlns="http://www.w3.org/2000/svg"><g fill="#870202" fill-rule="nonzero"><path d="M0 0v44h35V0H0zm33.094 42.102H1.906v-5.43h31.188v5.43zm0-7.328H1.906V7.387h31.188v27.387zm0-29.285H1.906V1.898h31.188v3.591z"/><path d="M14.111 14.493v3.618H6.889v-7.222h6.336V9H5v11h11v-5.507z"/><path d="M17.66 9l-5.254 5.3-2.067-2.085L9 13.565 12.406 17 19 10.35zM14.111 27.493v3.618H6.889v-7.222h6.336V22H5v11h11v-5.507z"/><path d="M17.66 22l-5.254 5.304-2.067-2.08L9 26.57 12.406 30 19 23.348zM19 15h7v2h-7zM19 18h11v2H19z"/></g></svg>
