<svg width="50" height="39" xmlns="http://www.w3.org/2000/svg"><g fill="#870202" fill-rule="nonzero"><path d="M49.385 3.24a2.437 2.437 0 0 0-1.685-.817L7.972.005A2.45 2.45 0 0 0 5.377 2.29l-.539 8.771H2.45A2.447 2.447 0 0 0 0 13.5V36.56A2.447 2.447 0 0 0 2.45 39h39.802c1.35 0 2.45-1.094 2.45-2.439v-6.33l1.285.079a2.448 2.448 0 0 0 2.595-2.285l1.413-23.02a2.416 2.416 0 0 0-.61-1.764zm-6.637 33.321a.496.496 0 0 1-.496.495H2.45a.496.496 0 0 1-.497-.495V19.96H37.07c.539 0 .976-.435.976-.972a.974.974 0 0 0-.976-.972H1.953V13.5c0-.273.223-.495.497-.495h39.802c.274 0 .496.222.496.495V36.56zm5.187-29.87L14.45 4.661a.973.973 0 1 0-.12 1.941l33.486 2.03-1.184 19.274a.497.497 0 0 1-.526.463l-1.405-.086V13.5a2.447 2.447 0 0 0-2.45-2.439H6.796l.532-8.653a.497.497 0 0 1 .526-.463L47.58 4.363a.495.495 0 0 1 .465.524l-.111 1.804z"/><path d="M36.253 27a5.34 5.34 0 0 0-2.753.744A5.34 5.34 0 0 0 30.747 27C28.13 27 26 28.794 26 31s2.13 4 4.747 4a5.34 5.34 0 0 0 2.753-.744 5.34 5.34 0 0 0 2.753.744C38.87 35 41 33.206 41 31s-2.13-4-4.747-4zm-4.103 6.008c-.412.205-.891.323-1.403.323-1.525 0-2.766-1.046-2.766-2.331s1.241-2.33 2.766-2.33c.512 0 .991.117 1.403.322A3.51 3.51 0 0 0 31.506 31c0 .732.235 1.417.644 2.008zm4.103.323c-1.526 0-2.767-1.046-2.767-2.331s1.241-2.33 2.767-2.33c1.525 0 2.766 1.045 2.766 2.33 0 1.285-1.24 2.33-2.766 2.33zM7.97 32.206a1.522 1.522 0 0 0-.41-.767 1.514 1.514 0 0 0-1.634-.325 1.522 1.522 0 0 0-.674.553 1.522 1.522 0 0 0-.223.539A1.502 1.502 0 0 0 7.56 33.56a1.48 1.48 0 0 0 .41-.768 1.478 1.478 0 0 0-.001-.586z"/><path d="M14.127 31H8.873C8.391 31 8 31.672 8 32.5s.39 1.5.873 1.5h5.254c.482 0 .873-.672.873-1.5s-.39-1.5-.873-1.5z"/></g></svg>
