<svg width="46" height="39" xmlns="http://www.w3.org/2000/svg"><g fill="#870202" fill-rule="nonzero"><path d="M37 21.022V4.223C37 1.897 35.098 0 32.764 0H4.236C1.902 0 0 1.897 0 4.223v16.799c0 2.326 1.902 4.223 4.236 4.223h1.209v5.064c0 .934.76 1.691 1.706 1.691.487 0 .956-.215 1.284-.589l5.351-6.175h18.987A4.221 4.221 0 0 0 37 21.022zm-23.748 1.934c-.338 0-.647.14-.872.392l-4.648 5.354v-4.606a1.15 1.15 0 0 0-1.153-1.15H4.236a1.94 1.94 0 0 1-1.94-1.933V4.223a1.94 1.94 0 0 1 1.94-1.934h28.528a1.94 1.94 0 0 1 1.94 1.934v16.799a1.94 1.94 0 0 1-1.94 1.934H13.252z"/><path d="M37.484 38.412a1.703 1.703 0 0 0 1.894.476 1.676 1.676 0 0 0 1.118-1.588v-5.062h1.222c2.359 0 4.282-1.896 4.282-4.222V11.222C46 8.896 44.077 7 41.718 7c-.644 0-1.165.514-1.165 1.14 0 .635.521 1.148 1.165 1.148 1.08 0 1.961.869 1.961 1.934v16.794c0 1.065-.88 1.933-1.96 1.933H39.34c-.644 0-1.165.514-1.165 1.15v4.604l-4.698-5.352a1.158 1.158 0 0 0-.881-.392h-17.43c-.645 0-1.166.513-1.166 1.148 0 .636.521 1.15 1.165 1.15h16.9l5.419 6.155z"/><circle cx="18" cy="12" r="1"/><circle cx="23" cy="12" r="1"/><circle cx="14" cy="12" r="1"/></g></svg>
