<svg width="182" height="141" xmlns="http://www.w3.org/2000/svg"><g fill="none" fill-rule="evenodd"><path fill="#870202" d="M0 111h170v30H0z"/><path d="M25.33.92c8.82 0 15.72 2.685 20.7 8.055 4.98 5.37 7.47 13.095 7.47 23.175 0 7.14-1.335 13.26-4.005 18.36S43.06 59.48 38.2 62.12c-4.86 2.64-10.47 3.96-16.83 3.96-3.36 0-6.57-.375-9.63-1.125-3.06-.75-5.67-1.815-7.83-3.195l5.4-10.71c3.06 2.1 6.99 3.15 11.79 3.15 5.34 0 9.57-1.575 12.69-4.725 3.12-3.15 4.8-7.695 5.04-13.635-3.78 3.78-9 5.67-15.66 5.67-4.02 0-7.68-.81-10.98-2.43-3.3-1.62-5.91-3.915-7.83-6.885-1.92-2.97-2.88-6.405-2.88-10.305 0-4.2 1.05-7.89 3.15-11.07 2.1-3.18 4.965-5.625 8.595-7.335C16.855 1.775 20.89.92 25.33.92zm1.08 29.7c3.18 0 5.775-.885 7.785-2.655 2.01-1.77 3.015-4.035 3.015-6.795s-.975-5.01-2.925-6.75c-1.95-1.74-4.635-2.61-8.055-2.61-3.12 0-5.655.84-7.605 2.52-1.95 1.68-2.925 3.96-2.925 6.84s.975 5.175 2.925 6.885c1.95 1.71 4.545 2.565 7.785 2.565zm36.63 24.72c-1.54 0-2.795-.525-3.765-1.575-.97-1.05-1.455-2.455-1.455-4.215 0-1.76.485-3.165 1.455-4.215.97-1.05 2.225-1.575 3.765-1.575s2.79.525 3.75 1.575c.96 1.05 1.44 2.455 1.44 4.215 0 1.76-.48 3.165-1.44 4.215-.96 1.05-2.21 1.575-3.75 1.575zM75.55 44h3.57L64.78 65h-3.57l14.34-21zm-12.51 8.88c.68 0 1.215-.28 1.605-.84.39-.56.585-1.39.585-2.49 0-1.1-.195-1.93-.585-2.49-.39-.56-.925-.84-1.605-.84-.66 0-1.19.285-1.59.855-.4.57-.6 1.395-.6 2.475s.2 1.905.6 2.475c.4.57.93.855 1.59.855zm14.25 12.36c-1 0-1.895-.235-2.685-.705S73.2 63.39 72.76 62.51c-.44-.88-.66-1.9-.66-3.06 0-1.16.22-2.18.66-3.06.44-.88 1.055-1.555 1.845-2.025s1.685-.705 2.685-.705c1.54 0 2.795.525 3.765 1.575.97 1.05 1.455 2.455 1.455 4.215 0 1.76-.485 3.165-1.455 4.215-.97 1.05-2.225 1.575-3.765 1.575zm0-2.46c.68 0 1.215-.285 1.605-.855.39-.57.585-1.395.585-2.475s-.195-1.905-.585-2.475c-.39-.57-.925-.855-1.605-.855-.66 0-1.19.28-1.59.84-.4.56-.6 1.39-.6 2.49 0 1.1.2 1.93.6 2.49.4.56.93.84 1.59.84z" fill="#4A9704"/><path d="M8.524 79.544v5.376c0 1.184-.308 2.064-.924 2.64-.616.576-1.516.864-2.7.864a6.753 6.753 0 0 1-1.776-.228c-.56-.152-1.024-.372-1.392-.66l.744-1.344c.272.224.616.402 1.032.534.416.132.832.198 1.248.198.648 0 1.126-.146 1.434-.438.308-.292.462-.734.462-1.326v-.276c-.488.536-1.168.804-2.04.804-.592 0-1.134-.13-1.626-.39a2.972 2.972 0 0 1-1.17-1.098c-.288-.472-.432-1.016-.432-1.632 0-.616.144-1.16.432-1.632a2.972 2.972 0 0 1 1.17-1.098 3.426 3.426 0 0 1 1.626-.39c.936 0 1.648.308 2.136.924v-.828h1.776zm-3.54 4.608c.496 0 .902-.146 1.218-.438.316-.292.474-.674.474-1.146 0-.472-.158-.854-.474-1.146-.316-.292-.722-.438-1.218-.438s-.904.146-1.224.438c-.32.292-.48.674-.48 1.146 0 .472.16.854.48 1.146.32.292.728.438 1.224.438zm11.604-1.356c0 .024-.012.192-.036.504h-4.884c.088.4.296.716.624.948.328.232.736.348 1.224.348.336 0 .634-.05.894-.15.26-.1.502-.258.726-.474l.996 1.08c-.608.696-1.496 1.044-2.664 1.044-.728 0-1.372-.142-1.932-.426a3.123 3.123 0 0 1-1.296-1.182 3.257 3.257 0 0 1-.456-1.716 3.3 3.3 0 0 1 .45-1.71c.3-.508.712-.904 1.236-1.188a3.629 3.629 0 0 1 1.758-.426 3.6 3.6 0 0 1 1.716.408c.512.272.914.662 1.206 1.17.292.508.438 1.098.438 1.77zm-3.348-1.932c-.424 0-.78.12-1.068.36-.288.24-.464.568-.528.984h3.18c-.064-.408-.24-.734-.528-.978-.288-.244-.64-.366-1.056-.366zM22 85.688c-.184.136-.41.238-.678.306-.268.068-.55.102-.846.102-.768 0-1.362-.196-1.782-.588-.42-.392-.63-.968-.63-1.728v-2.652h-.996v-1.44h.996v-1.572h1.872v1.572h1.608v1.44h-1.608v2.628c0 .272.07.482.21.63.14.148.338.222.594.222.296 0 .548-.08.756-.24l.504 1.32zm8.376-6.24c.8 0 1.446.24 1.938.72s.738 1.192.738 2.136V86H31.18v-3.408c0-.512-.112-.894-.336-1.146-.224-.252-.548-.378-.972-.378-.472 0-.848.146-1.128.438-.28.292-.42.726-.42 1.302V86h-1.872v-8.904h1.872v3.12a2.49 2.49 0 0 1 .9-.57 3.256 3.256 0 0 1 1.152-.198zm4.368.096h1.872V86h-1.872v-6.456zm.936-.9c-.344 0-.624-.1-.84-.3a.973.973 0 0 1-.324-.744c0-.296.108-.544.324-.744.216-.2.496-.3.84-.3s.624.096.84.288a.923.923 0 0 1 .324.72c0 .312-.108.57-.324.774-.216.204-.496.306-.84.306zm4.464 1.752c.224-.312.526-.548.906-.708.38-.16.818-.24 1.314-.24v1.728a6.756 6.756 0 0 0-.42-.024c-.536 0-.956.15-1.26.45-.304.3-.456.75-.456 1.35V86h-1.872v-6.456h1.788v.852zm9.6 2.4c0 .024-.012.192-.036.504h-4.884c.088.4.296.716.624.948.328.232.736.348 1.224.348.336 0 .634-.05.894-.15.26-.1.502-.258.726-.474l.996 1.08c-.608.696-1.496 1.044-2.664 1.044-.728 0-1.372-.142-1.932-.426a3.123 3.123 0 0 1-1.296-1.182 3.257 3.257 0 0 1-.456-1.716 3.3 3.3 0 0 1 .45-1.71c.3-.508.712-.904 1.236-1.188a3.629 3.629 0 0 1 1.758-.426 3.6 3.6 0 0 1 1.716.408c.512.272.914.662 1.206 1.17.292.508.438 1.098.438 1.77zm-3.348-1.932c-.424 0-.78.12-1.068.36-.288.24-.464.568-.528.984h3.18c-.064-.408-.24-.734-.528-.978-.288-.244-.64-.366-1.056-.366zm11.172-3.768V86H55.78v-.744c-.464.56-1.136.84-2.016.84a3.352 3.352 0 0 1-1.65-.408 2.921 2.921 0 0 1-1.158-1.164c-.28-.504-.42-1.088-.42-1.752 0-.664.14-1.248.42-1.752.28-.504.666-.892 1.158-1.164a3.352 3.352 0 0 1 1.65-.408c.824 0 1.468.26 1.932.78v-3.132h1.872zm-3.48 7.464c.472 0 .864-.162 1.176-.486.312-.324.468-.758.468-1.302s-.156-.978-.468-1.302a1.564 1.564 0 0 0-1.176-.486c-.48 0-.876.162-1.188.486-.312.324-.468.758-.468 1.302s.156.978.468 1.302c.312.324.708.486 1.188.486z" fill="#17191E"/><g fill-rule="nonzero"><g transform="translate(146 11)"><ellipse fill="#EC7D42" cx="18" cy="17.5" rx="18" ry="17.5"/><ellipse fill="#FFF" cx="18" cy="17.917" rx="12.14" ry="12.083"/><ellipse fill="#EC7D42" cx="18" cy="17.917" rx="5.442" ry="5.417"/><path d="M17.886 19.167a1.14 1.14 0 0 1-.807-.333 1.132 1.132 0 0 1 0-1.607L27.354 7a1.145 1.145 0 0 1 1.614 0 1.132 1.132 0 0 1 0 1.606L18.693 18.834a1.14 1.14 0 0 1-.807.333z" fill="#5C414B"/><path d="M25.953 6.455v1.663c0 .58.524 1.049 1.171 1.049h1.856c.31 0 .608-.11.828-.307l4.31-3.862c.443-.396.13-1.074-.496-1.074h-1.816V2.297c0-.56-.757-.841-1.199-.445l-4.31 3.862a.996.996 0 0 0-.344.741z" fill="#FFDC64"/><path d="M31.814 2.324c0-.584-.758-.877-1.2-.464l-4.317 4.027c-.22.205-.344.483-.344.773v1.734c0 .301.132.575.344.773l5.517-5.147V2.324z" fill="#FFC850"/></g><g transform="translate(106 11)"><path d="M49.198 27.347v-5.844c0-11.26-8.565-20.95-19.697-21.48C17.615-.541 7.802 9.029 7.802 20.914v6.434c0 10.826-1.78 17.154-2.679 19.658a1.597 1.597 0 0 0 .747 1.945c3.173 1.706 11.817 6.068 19.446 7.353h6.368c7.629-1.285 16.273-5.647 19.446-7.353a1.597 1.597 0 0 0 .747-1.945c-.899-2.504-2.68-8.832-2.68-19.658z" fill="#5C414B"/><path d="M7.764 21.13v6.453c0 10.854-1.756 17.2-2.642 19.71-.265.751.058 1.581.745 1.956 2.92 1.593 10.504 5.485 17.604 7.054V24.357l-3.142-3.226c-5.225-5.366-5.578-12.143-5.233-16.089-4.479 3.846-7.332 9.624-7.332 16.089z" fill="#503441"/><path fill="#E6AF78" d="M20.956 44.538h15.926v21.008H20.956z"/><path d="M51.343 60.134l-8.455-3.831-11.298 4.855-1.855 2.835c-.629.96-2.014.96-2.643 0l-1.855-2.835-11.125-4.855-8.455 3.831c-3.528 1.599-5.76 5.209-5.653 9.142L.838 100h55.324l.834-30.724c.107-3.933-2.125-7.543-5.653-9.142z" fill="#4A636F"/><g fill="#8B9AA2"><path d="M10.897 72.385l-8.181-10.2C.954 64.03-.07 66.515.004 69.162L.859 100h10.038V72.385zM46.103 72.385l8.181-10.2c1.762 1.845 2.786 4.33 2.712 6.977L56.141 100H46.103V72.385z"/></g><path d="M20.956 49.42a18.21 18.21 0 0 0 7.963 1.84c2.828 0 5.527-.66 7.963-1.84v-4.882H20.956v4.882z" fill="#D29B6E"/><path d="M43.739 36.889c.415-1.301.65-2.66.684-4.025.238-9.255-12.745-7.088-23.41-14.095-.744-.488-1.734-.333-2.242.397-1.685 2.42-3.593 4.335-4.718 5.368a3.219 3.219 0 0 1-2.183.85h-1.16l-.002.001a3.154 3.154 0 0 0-.541.058c-1.568.303-2.623 1.8-2.623 3.394v1.164c0 1.538.987 2.99 2.487 3.339.338.079.667.1.981.076.801-.064 1.5.518 1.645 1.307 1.369 7.493 7.925 13.176 15.826 13.176 6.714 0 12.444-4.111 14.858-9.943.117-.284.375-.998.398-1.067z" fill="#F0C087"/><path d="M18.51 33.152V20.168c-1.651 2.502-3.532 4.48-4.635 5.544a3.05 3.05 0 0 1-2.124.87h-1.127-.002a2.931 2.931 0 0 0-.526.059c-1.525.309-2.552 1.837-2.552 3.465v1.19c0 1.572.96 3.054 2.419 3.412.328.08.648.103.954.077.78-.065 1.46.53 1.6 1.335 1.331 7.654 7.708 13.46 15.391 13.46 1.066 0 2.102-.122 3.107-.335-7.137-1.533-12.505-8.155-12.505-16.093z" fill="#E6AF78"/><g fill="#8B9AA2"><path d="M16.659 62.721l-3.115-6.244 3.51-3.006a1.613 1.613 0 0 1 2.36.286l5.436 7.578-3.364 2.529a3.226 3.226 0 0 1-4.827-1.143zM39.503 62.721l3.114-6.244-3.51-3.006a1.613 1.613 0 0 0-2.36.286l-5.436 7.578 3.364 2.529a3.226 3.226 0 0 0 4.828-1.143z"/></g><path d="M45.87 100H10.292c-1.695 0-3.096-1.346-3.196-3.07L5.873 75.722c-.108-1.874 1.354-3.454 3.196-3.454h38.024c1.842 0 3.304 1.58 3.195 3.454l-1.223 21.206c-.1 1.724-1.5 3.071-3.196 3.071z" fill="#DBD9DC"/><ellipse fill="#FFF" cx="28.5" cy="84.034" rx="4.191" ry="4.202"/></g></g></g></svg>
