<svg width="37" height="25" xmlns="http://www.w3.org/2000/svg"><path d="M17.97 3.698a8.115 8.115 0 0 0-4.513-1.336c-1.102 0-2.16.212-3.171.637a8.243 8.243 0 0 0-2.61 1.704 8.065 8.065 0 0 0-1.742 2.545 7.597 7.597 0 0 0-.65 3.095c0 1.09.216 2.126.65 3.11A8.065 8.065 0 0 0 7.676 16a8.266 8.266 0 0 0 2.602 1.705 8.104 8.104 0 0 0 3.18.636 8.115 8.115 0 0 0 4.512-1.336c-1.402-1.12-2.355-2.51-2.858-4.17a8.336 8.336 0 0 1 .008-4.973c.508-1.655 1.458-3.043 2.85-4.163zm.53.377c-1.349 1.037-2.27 2.343-2.762 3.92a7.768 7.768 0 0 0-.008 4.72c.487 1.572 1.41 2.875 2.77 3.912 1.36-1.037 2.283-2.34 2.77-3.912a7.768 7.768 0 0 0-.008-4.72c-.492-1.577-1.413-2.883-2.762-3.92zm.53-.377c1.392 1.12 2.342 2.51 2.85 4.17.509 1.66.512 3.32.008 4.981-.503 1.66-1.456 3.045-2.858 4.155a8.115 8.115 0 0 0 4.513 1.336 8.104 8.104 0 0 0 3.18-.636 8.266 8.266 0 0 0 2.6-1.705 8.065 8.065 0 0 0 1.743-2.545 7.63 7.63 0 0 0 .65-3.11c0-1.08-.216-2.111-.65-3.096a8.065 8.065 0 0 0-1.742-2.545A8.243 8.243 0 0 0 26.714 3a8.122 8.122 0 0 0-3.171-.637 8.115 8.115 0 0 0-4.513 1.336zm11.9 11.343h.112v-.047h-.273v.047h.113v.267h.048v-.267zm.465.267h.065v-.314h-.08l-.097.204-.096-.204h-.08v.314h.048v-.236l.096.204h.064l.08-.204v.236zm-.128 6.897v.047h-.08v-.047h.08zm0 .157h.048l-.064-.079h.032l.016-.016c.01-.01.016-.026.016-.047 0-.02-.005-.036-.016-.047l-.016-.016h-.145v.205h.049v-.079h.016l.064.079zM11 21.293c0-.199.06-.36.177-.487a.628.628 0 0 1 .482-.188c.193 0 .348.065.466.196a.69.69 0 0 1 .176.48.684.684 0 0 1-.176.486.608.608 0 0 1-.466.189.628.628 0 0 1-.482-.189.684.684 0 0 1-.177-.487zm7.596-.69c.322 0 .509.167.562.502h-1.124c.054-.335.241-.503.562-.503zm5.717.69c0-.199.06-.36.177-.487a.608.608 0 0 1 .466-.188.62.62 0 0 1 .473.196.67.67 0 0 1 .185.48.684.684 0 0 1-.177.486.628.628 0 0 1-.481.189.608.608 0 0 1-.466-.189.684.684 0 0 1-.177-.487zm4.368 0c0-.188.062-.348.185-.479a.621.621 0 0 1 .474-.196c.193 0 .35.065.474.196.123.131.184.29.184.48a.667.667 0 0 1-.184.486.634.634 0 0 1-.474.189.621.621 0 0 1-.474-.196.674.674 0 0 1-.185-.48zm2.538 1.132a.145.145 0 0 1-.064-.016c-.011 0-.027-.01-.049-.032-.021-.02-.032-.036-.032-.047a.137.137 0 0 1-.016-.063c0-.031.006-.052.016-.062 0-.021.01-.042.032-.063l.016-.016c.022 0 .033-.005.033-.016a.145.145 0 0 1 .064-.015c.032 0 .053.005.064.015l.064.032.032.063v.015a.116.116 0 0 1 .016.047l-.016.016v.047c0 .01-.005.016-.016.016l-.016.031c-.021.021-.043.032-.064.032-.01.01-.032.016-.064.016zm-21.6-.063h.482v-1.336c0-.251-.077-.453-.233-.605-.155-.151-.366-.233-.634-.243-.343 0-.594.126-.755.377-.15-.251-.39-.377-.722-.377a.753.753 0 0 0-.627.314v-.251h-.482v2.12h.482v-1.178c0-.377.177-.565.53-.565.321 0 .482.188.482.565v1.179h.466v-1.179c0-.377.176-.565.53-.565.32 0 .481.188.481.565v1.179zm2.666 0h.466V20.24h-.466v.251a.875.875 0 0 0-.69-.314c-.31 0-.568.105-.771.314-.204.21-.305.477-.305.801 0 .325.101.592.305.802.203.21.46.314.77.314.3 0 .53-.105.691-.314v.267zm2.859-.644c0-.357-.252-.566-.755-.629l-.225-.031c-.246-.042-.37-.115-.37-.22 0-.157.135-.236.402-.236.246 0 .477.058.69.173l.193-.377c-.235-.147-.53-.22-.883-.22-.278 0-.498.063-.658.188a.606.606 0 0 0-.241.503c0 .346.251.55.755.613l.208.031c.257.042.386.116.386.22 0 .178-.166.267-.498.267a1.25 1.25 0 0 1-.723-.22l-.208.362c.267.178.578.267.931.267.31 0 .554-.063.73-.189a.588.588 0 0 0 .266-.502zm2.087.534l-.128-.393a.889.889 0 0 1-.418.11c-.203 0-.305-.115-.305-.346v-.958h.771v-.424h-.77v-.644h-.483v.644h-.45v.424h.45v.958c0 .524.252.786.755.786.225 0 .418-.053.578-.157zm1.381-2.074c-.31 0-.567.105-.77.314-.204.21-.306.477-.306.801 0 .336.105.605.314.81.208.204.473.306.795.306.353 0 .647-.1.883-.299l-.225-.345a.972.972 0 0 1-.626.235c-.364 0-.584-.172-.659-.518h1.622v-.189c0-.335-.096-.604-.289-.809a.971.971 0 0 0-.739-.306zm2.554 0a.62.62 0 0 0-.562.314v-.251h-.482v2.12h.482v-1.193c0-.367.155-.55.465-.55a.65.65 0 0 1 .29.063l.144-.44a.84.84 0 0 0-.337-.063zm.482 1.115c0 .325.104.592.313.802.208.21.49.314.843.314.31 0 .567-.084.77-.252l-.224-.377c-.193.137-.38.2-.562.189a.634.634 0 0 1-.474-.189.667.667 0 0 1-.185-.487.67.67 0 0 1 .185-.487.634.634 0 0 1 .474-.188.93.93 0 0 1 .562.188l.225-.377a1.213 1.213 0 0 0-.771-.251c-.353 0-.635.105-.843.314-.209.21-.313.477-.313.801zm3.934 1.069h.482V20.24h-.482v.251c-.16-.21-.385-.314-.674-.314-.31 0-.57.105-.78.314a1.09 1.09 0 0 0-.312.801c0 .325.104.592.313.802.208.21.468.314.779.314.3 0 .524-.105.674-.314v.267zm2.136-2.184a.62.62 0 0 0-.562.314v-.251h-.466v2.12h.466v-1.193c0-.367.155-.55.466-.55a.65.65 0 0 1 .289.063l.144-.44a.772.772 0 0 0-.337-.063zm2.248 2.184h.466v-2.985h-.466v1.115c-.16-.21-.39-.314-.69-.314-.3 0-.554.107-.763.322-.209.215-.313.48-.313.793 0 .315.104.58.313.794.209.214.463.322.763.322.31 0 .54-.105.69-.314v.267zm1.253-.314l-.032.015h-.049a.251.251 0 0 0-.064.047c-.032.01-.048.032-.048.063a.215.215 0 0 0-.016.094c0 .032.005.058.016.079 0 .02.016.042.048.063.022.02.043.037.064.047.022.01.049.016.08.016a.228.228 0 0 0 .097-.016c0-.01.01-.021.032-.031l.032-.016a.47.47 0 0 0 .049-.063.172.172 0 0 0 .016-.079.215.215 0 0 0-.016-.094.47.47 0 0 1-.049-.063c0-.01-.01-.02-.032-.031l-.032-.016a.224.224 0 0 1-.048-.008.224.224 0 0 0-.048-.007zM37 2.362v20.11c0 .544-.203 1.016-.61 1.414a1.997 1.997 0 0 1-1.446.597H2.056a1.997 1.997 0 0 1-1.446-.597c-.407-.398-.61-.87-.61-1.414V2.362C0 1.818.203 1.346.61.948A1.997 1.997 0 0 1 2.056.351h32.888c.557 0 1.039.2 1.446.597.407.398.61.87.61 1.414z" fill="#BDBDBD" fill-rule="evenodd"/></svg>