<svg width="507" height="438" xmlns="http://www.w3.org/2000/svg" xmlns:xlink="http://www.w3.org/1999/xlink"><defs><linearGradient x1="50%" y1="2.202%" x2="50%" y2="64.836%" id="a"><stop stop-color="#FFF" stop-opacity=".297" offset="0%"/><stop stop-color="#FFF" offset="100%"/></linearGradient><circle id="c" cx="19" cy="19" r="19"/><filter x="-27.6%" y="-27.6%" width="155.3%" height="155.3%" filterUnits="objectBoundingBox" id="b"><feOffset in="SourceAlpha" result="shadowOffsetOuter1"/><feGaussianBlur stdDeviation="3.5" in="shadowOffsetOuter1" result="shadowBlurOuter1"/><feColorMatrix values="0 0 0 0 0 0 0 0 0 0 0 0 0 0 0 0 0 0 0.142266757 0" in="shadowBlurOuter1"/></filter><circle id="e" cx="19" cy="19" r="19"/><filter x="-27.6%" y="-27.6%" width="155.3%" height="155.3%" filterUnits="objectBoundingBox" id="d"><feOffset in="SourceAlpha" result="shadowOffsetOuter1"/><feGaussianBlur stdDeviation="3.5" in="shadowOffsetOuter1" result="shadowBlurOuter1"/><feColorMatrix values="0 0 0 0 0 0 0 0 0 0 0 0 0 0 0 0 0 0 0.142266757 0" in="shadowBlurOuter1"/></filter><circle id="g" cx="19" cy="19" r="19"/><filter x="-27.6%" y="-27.6%" width="155.3%" height="155.3%" filterUnits="objectBoundingBox" id="f"><feOffset in="SourceAlpha" result="shadowOffsetOuter1"/><feGaussianBlur stdDeviation="3.5" in="shadowOffsetOuter1" result="shadowBlurOuter1"/><feColorMatrix values="0 0 0 0 0 0 0 0 0 0 0 0 0 0 0 0 0 0 0.142266757 0" in="shadowBlurOuter1"/></filter></defs><g fill="none" fill-rule="evenodd"><g transform="translate(0 7)"><circle stroke="#E1E1E1" cx="210" cy="200" r="195"/><circle stroke="#E1E1E1" cx="226" cy="235" r="179"/><path fill="url(#a)" d="M0 240h507v191H0z"/><g transform="translate(227 32)"><use fill="#000" filter="url(#b)" xlink:href="#c"/><use fill="#FFF" xlink:href="#c"/></g><g fill="#4A9704" fill-rule="nonzero"><path d="M255.655 43.799a37.315 37.315 0 0 1-8.917-3.735.474.474 0 0 0-.476 0 36.293 36.293 0 0 1-8.917 3.735.464.464 0 0 0-.345.446v4.729c0 4.87 2.275 8.092 4.183 9.939C243.238 60.9 245.631 62 246.5 62c.869 0 3.262-1.1 5.317-3.087 1.908-1.847 4.183-5.07 4.183-9.94v-4.728a.464.464 0 0 0-.345-.446zm-.592 5.175c0 4.548-2.122 7.555-3.902 9.278-2.02 1.954-4.18 2.822-4.66 2.822-.481 0-2.641-.868-4.662-2.822-1.78-1.723-3.902-4.73-3.902-9.278v-4.377a37.161 37.161 0 0 0 8.563-3.598 38.338 38.338 0 0 0 8.563 3.597v4.378z"/><path d="M241.972 44.325c-.08-.264-.312-.393-.517-.29a28.08 28.08 0 0 1-2.175.987c-.167.067-.28.265-.28.488v1.978c0 .283.179.512.4.512.22 0 .398-.23.398-.512v-1.603c.655-.272 1.31-.573 1.95-.896.204-.104.305-.401.224-.664z"/><path d="M242.497 45a.493.493 0 0 0 .198-.042l.01-.004a.499.499 0 0 0-.4-.912l-.009.004a.498.498 0 0 0 .2.954zm9.333 9.078c-.174-.144-.408-.082-.521.138-.31.601-.674 1.177-1.082 1.711-.335.44-.698.849-1.079 1.217-.165.16-.197.459-.071.668.074.123.186.188.3.188.08 0 .16-.032.227-.098a11.68 11.68 0 0 0 1.164-1.312c.44-.577.835-1.2 1.17-1.852.114-.22.065-.516-.109-.66zm-3.56 3.989l-.028.017a.494.494 0 0 0-.177.67.483.483 0 0 0 .663.18l.032-.02a.494.494 0 0 0 .173-.671.482.482 0 0 0-.663-.176zm-5.577-8.934a1.687 1.687 0 0 0-1.116-.405c-.421 0-.818.144-1.116.405-.615.539-.615 1.415 0 1.954l2.865 2.509c.298.26.695.404 1.116.404.421 0 .818-.144 1.116-.405l5.98-5.237c.616-.539.616-1.415 0-1.953a1.687 1.687 0 0 0-1.115-.405c-.421 0-.818.144-1.116.405l-4.865 4.26-1.75-1.532zm7.3-2.128a.65.65 0 0 1 .43-.155.65.65 0 0 1 .43.155.487.487 0 0 1 0 .752l-5.981 5.238a.65.65 0 0 1-.43.155.65.65 0 0 1-.43-.155l-2.865-2.509a.487.487 0 0 1 0-.752.65.65 0 0 1 .43-.156.65.65 0 0 1 .43.156l2.092 1.832c.09.08.214.124.343.124a.522.522 0 0 0 .343-.124l5.208-4.56z"/></g><g transform="translate(30 78)"><use fill="#000" filter="url(#d)" xlink:href="#e"/><use fill="#FFF" xlink:href="#e"/></g><g fill="#4A9704" fill-rule="nonzero"><path d="M56.452 92.996h-.95v-3.744A6.26 6.26 0 0 0 49.25 83h-1.5a6.26 6.26 0 0 0-6.251 6.252v3.744h-.951A1.55 1.55 0 0 0 39 94.544v10.908A1.55 1.55 0 0 0 40.548 107h15.904A1.55 1.55 0 0 0 58 105.452V94.544a1.55 1.55 0 0 0-1.548-1.548zM47.75 84.01h1.5a5.248 5.248 0 0 1 5.242 5.242v3.744h-1.989v-3.744A3.257 3.257 0 0 0 49.25 86h-1.5a3.257 3.257 0 0 0-3.253 3.253v3.744h-1.989v-3.744a5.248 5.248 0 0 1 5.242-5.242zm3.743 8.986h-5.986v-3.744a2.246 2.246 0 0 1 2.243-2.244h1.5a2.246 2.246 0 0 1 2.243 2.244v3.744zm5.497 12.456a.539.539 0 0 1-.538.538H40.548a.539.539 0 0 1-.538-.538V94.544c0-.297.241-.539.538-.539h15.904c.297 0 .538.242.538.539v10.908z"/><path d="M51 98.501A2.504 2.504 0 0 0 48.5 96a2.504 2.504 0 0 0-2.5 2.501c0 .771.36 1.497.956 1.968l-.451 2.952a.503.503 0 0 0 .498.579h2.995a.504.504 0 0 0 .492-.612l-.446-2.92A2.51 2.51 0 0 0 51 98.501zm-1.755 1.296a.503.503 0 0 0-.245.511l.41 2.685h-1.82l.41-2.685a.503.503 0 0 0-.245-.511 1.495 1.495 0 0 1 .745-2.79 1.495 1.495 0 0 1 .745 2.79zM55.5 102c-.276 0-.5.201-.5.449v2.102c0 .248.224.449.5.449s.5-.2.5-.449v-2.102c0-.248-.224-.449-.5-.449zm0-2c-.276 0-.5.216-.5.482v.036c0 .266.224.482.5.482s.5-.216.5-.482v-.036a.491.491 0 0 0-.5-.482zm-14-1c-.276 0-.5.216-.5.482v.036c0 .266.224.482.5.482s.5-.216.5-.482v-.036a.491.491 0 0 0-.5-.482zm0-4c-.276 0-.5.2-.5.449v2.102c0 .248.224.449.5.449s.5-.2.5-.449V95.45c0-.248-.224-.449-.5-.449z"/></g><g transform="translate(124)"><use fill="#000" filter="url(#f)" xlink:href="#g"/><use fill="#FFF" xlink:href="#g"/></g><g fill="#4A9704" fill-rule="nonzero"><path d="M140.212 9.946a.514.514 0 0 0 .232.054.472.472 0 0 0 .379-.175 2.37 2.37 0 0 1 .134-.166c.422-.483 1.009-.806 1.697-.934.239-.045.389-.241.335-.439-.054-.197-.292-.322-.531-.277-.902.168-1.67.59-2.221 1.22-.06.068-.117.14-.171.212-.129.173-.063.398.146.505z"/><path d="M143.437 8.995h.008a.494.494 0 0 0 .55-.43.5.5 0 1 0-.992-.118.498.498 0 0 0 .434.548z"/><path d="M152.672 21.07a12.921 12.921 0 0 1-3.048-1.28.45.45 0 0 0-.454 0 12.32 12.32 0 0 1-.431.241c-.768-.045-1.314-.248-1.696-.998.924-.623 1.255-1.127 1.627-3.364.024-.14.059-.32.099-.529.222-1.147.558-2.882.227-3.979-.383-1.27-1.11-2.33-2.103-3.066C145.926 7.38 144.753 7 143.5 7c-1.253 0-2.426.379-3.393 1.095-.993.735-1.72 1.796-2.104 3.066-.33 1.097.006 2.831.228 3.979.04.209.075.39.099.53.374 2.248.707 2.746 1.642 3.373-.297.572-.963.852-1.952 1.228-.884.337-1.887.718-2.674 1.525-.906.93-1.346 2.242-1.346 4.013 0 .244.2.442.446.442h12.374c.172.226.35.422.52.587.74.718 1.644 1.162 2.057 1.162.413 0 1.316-.444 2.056-1.162A5.02 5.02 0 0 0 153 23.154v-1.657a.442.442 0 0 0-.328-.426zm-13.814-9.656c.657-2.178 2.436-3.53 4.642-3.53 2.206 0 3.985 1.353 4.642 3.53.119.396.121.946.07 1.523-.974-.327-1.496-1.635-1.502-1.65a.45.45 0 0 0-.72-.167c-2.09 1.915-5.747.787-5.783.775a.448.448 0 0 0-.52.194c-.157.26-.542.518-.91.71-.039-.526-.028-1.021.081-1.385zm.352 4.112a21.751 21.751 0 0 0-.103-.553 30.217 30.217 0 0 1-.221-1.244c.374-.167.965-.477 1.355-.906.941.24 3.804.795 5.897-.685.328.577.97 1.44 1.962 1.688-.066.42-.144.82-.207 1.148a22.8 22.8 0 0 0-.103.552c-.37 2.228-.604 2.375-1.587 2.995-.165.103-.35.22-.558.359-.712.405-1.434.61-2.145.61-.711 0-1.433-.205-2.145-.61a22.4 22.4 0 0 0-.557-.36l-.042-.025-.003-.002c-.946-.596-1.178-.773-1.543-2.967zm4.29 9.841h-8.597c.147-3.018 1.818-3.655 3.437-4.271.936-.356 1.898-.723 2.384-1.571l.144.095.027.017c.854.489 1.73.736 2.605.736.874 0 1.75-.247 2.605-.736l.027-.017.16-.105c.314.575.714.917 1.148 1.119-.428.169-.866.314-1.318.437a.442.442 0 0 0-.329.426v1.657c0 .16.007.314.02.464h-2.776a.444.444 0 0 0-.446.442c0 .244.2.441.446.441h2.926c.083.315.191.603.316.866H143.5zm5.897 1.748c-.216-.043-1.231-.492-1.956-1.514a.442.442 0 0 0-.054-.078 4.038 4.038 0 0 1-.627-1.54l-.003-.016a4.563 4.563 0 0 1-.071-.813V21.83a13.179 13.179 0 0 0 2.71-1.148c.854.476 1.781.869 2.712 1.148v1.325c0 2.796-2.369 3.893-2.711 3.96z"/><path d="M151.134 23.099l-1.636 1.087-.632-.42a.701.701 0 0 0-.717 0c-.199.132-.199.345 0 .477l.99.658c.1.066.23.099.359.099.13 0 .26-.033.359-.099l1.994-1.325c.199-.132.199-.346 0-.477a.701.701 0 0 0-.717 0zM141.517 23h-.034a.491.491 0 0 0-.483.5c0 .276.216.5.483.5h.034a.491.491 0 0 0 .483-.5c0-.276-.216-.5-.483-.5zm-.017-8a.501.501 0 0 0 0-1 .5.5 0 0 0 0 1zm4 0a.5.5 0 0 0 0-1 .501.501 0 0 0 0 1z"/></g></g><g transform="translate(61 330)"><rect fill="#E6E6E6" x="49.173" y="23.036" width="213.827" height="54.94" rx="8"/><g fill-rule="nonzero"><path fill="#F0F0F0" d="M35.59.168H.385v55.695h45.037V10.08z"/><path fill="#D5D4D5" d="M35.59 10.08h9.832L35.59.169zM5.781 47.542h15.142v1.739H5.781zm17.499 0h5.876v1.739H23.28z"/><path d="M22.727 14.091a9.07 9.07 0 0 1-.267 2.189c-.968 3.939-4.5 6.857-8.706 6.857-.12 0-.24 0-.359-.01-4.783-.187-8.613-4.159-8.613-9.036 0-4.998 4.021-9.046 8.972-9.046 4.957 0 8.973 4.048 8.973 9.046z" fill="#5C5C71" opacity=".33"/><path fill="#D5D4D5" d="M25.19 7.086h13.194v1.739H25.19zM5.781 28.101h23.873v1.738H5.781zm16.342 6.861h4.835v1.739h-4.835zm-16.342 0H19.18v1.739H5.781zm12.481 6.07h7.33v1.739h-7.33zm9.423 0h3.745v1.739h-3.745zm-21.904 0h9.405v1.739H5.781zM25.19 11.121h7.436v1.739H25.19z"/><path d="M22.46 16.28c-.968 3.939-4.5 6.857-8.706 6.857-.12 0-.24 0-.359-.01L8.88 18.572l3.89-3.928v-4.197l2.59-1.327 7.101 7.159z" fill="#5C5C71" opacity=".33"/><g transform="translate(8.594 8.19)" fill="#FFF"><ellipse cx="4.957" cy="2.723" rx="2.322" ry="2.421"/><path d="M9.628 10.381c-.28-2.43-2.264-4.315-4.671-4.315C2.55 6.066.566 7.95.285 10.38h9.343z"/></g><path d="M78.998 20.327v30.167c0 8.623-8.556 16.343-16.193 21.512-6.008 4.073-11.442 6.557-11.661 6.65h-.009s-27.862-12.74-27.862-28.162V20.327l27.87-8.84 27.855 8.84z" fill="#56BB1C"/><path d="M51.143 11.487h-.004v67.17h.004C51.63 78.457 79 65.915 79 50.494v-30.17l-27.858-8.836z" fill="#4DA00B"/><path d="M78.998 41.854v8.64c0 8.623-8.556 16.342-16.193 21.511L34.074 42.808l18.26 6.532 19.154-14.93 7.51 7.444z" fill="#172F21" opacity=".227"/><path fill="#FFF" d="M34.07 42.81l14.188 14.373L71.486 34.41l-6.027-5.476-16.95 16.925-9.165-7.964z"/></g></g><path d="M165.508 393.74h-1.199v-.747a2.24 2.24 0 0 1-1.77.882c-1.415 0-2.454-1.063-2.454-2.86 0-1.764 1.027-2.872 2.454-2.872.685 0 1.325.317 1.77.894v-2.838h1.199v7.54zm-2.626-.917c.57 0 1.153-.316 1.427-.723v-2.17c-.274-.407-.856-.735-1.427-.735-.948 0-1.553.757-1.553 1.82 0 1.051.605 1.808 1.553 1.808zm9.1.916h-1.2v-.723a2.655 2.655 0 0 1-1.952.859c-1.187 0-1.77-.61-1.77-1.73v-3.866h1.2v3.437c0 .847.433 1.107 1.107 1.107.605 0 1.13-.339 1.416-.712v-3.832h1.198v5.46zm4.098.136c-1.655 0-2.888-1.142-2.888-2.872 0-1.582 1.164-2.86 2.797-2.86 1.655 0 2.717 1.255 2.717 2.974v.282h-4.258c.091.825.719 1.504 1.758 1.504.537 0 1.176-.215 1.564-.6l.548.78c-.548.52-1.359.792-2.238.792zm1.462-3.312c-.023-.645-.468-1.447-1.553-1.447-1.028 0-1.496.78-1.553 1.447h3.106zm6.941 3.312c-.924 0-1.415-.498-1.415-1.402v-3.154h-.914v-1.04h.914v-1.492h1.199v1.492h1.118v1.04h-1.118v2.86c0 .373.182.644.525.644.228 0 .445-.09.536-.192l.286.893c-.217.204-.571.35-1.13.35zm4.476 0c-1.747 0-2.831-1.3-2.831-2.872 0-1.56 1.084-2.86 2.831-2.86 1.77 0 2.843 1.3 2.843 2.86 0 1.572-1.073 2.872-2.843 2.872zm0-1.052c1.028 0 1.598-.847 1.598-1.82 0-.96-.57-1.808-1.598-1.808-1.016 0-1.587.848-1.587 1.808 0 .973.57 1.82 1.587 1.82zm8.643 1.052c-.925 0-1.416-.498-1.416-1.402v-3.154h-.913v-1.04h.913v-1.492h1.199v1.492h1.119v1.04h-1.119v2.86c0 .373.183.644.525.644.229 0 .446-.09.537-.192l.285.893c-.217.204-.57.35-1.13.35zm6.919-.136h-1.199v-3.436c0-.848-.445-1.108-1.119-1.108-.605 0-1.13.362-1.416.735v3.81h-1.198v-7.54h1.198v2.825a2.646 2.646 0 0 1 1.953-.882c1.187 0 1.78.61 1.78 1.73v3.866zm4.099.136c-1.656 0-2.889-1.142-2.889-2.872 0-1.582 1.165-2.86 2.797-2.86 1.656 0 2.718 1.255 2.718 2.974v.282h-4.259c.091.825.72 1.504 1.758 1.504.537 0 1.176-.215 1.564-.6l.548.78c-.548.52-1.358.792-2.237.792zm1.461-3.312c-.023-.645-.468-1.447-1.553-1.447-1.027 0-1.495.78-1.552 1.447h3.105zm12.285 3.176h-1.964v-3.03h-3.162v3.03h-1.964v-7.54h1.964v2.815h3.162v-2.815h1.964v7.54zm5.035 0h-1.964v-5.844h-2.135v-1.696h6.223v1.696H227.4v5.844zm6.725 0h-1.964v-5.844h-2.135v-1.696h6.223v1.696h-2.124v5.844zm5.024 0h-1.964v-7.54h3.813c1.713 0 2.649 1.142 2.649 2.51 0 1.356-.936 2.498-2.649 2.498h-1.85v2.532zm1.587-4.228c.525 0 .913-.294.913-.802 0-.52-.388-.814-.913-.814h-1.587v1.616h1.587zm6.622 4.364c-1.542 0-2.615-.475-3.38-1.198l1.04-1.459a3.458 3.458 0 0 0 2.431.995c.674 0 1.085-.26 1.085-.622 0-1.028-4.316-.203-4.316-3.108 0-1.266 1.085-2.397 3.037-2.397 1.222 0 2.283.362 3.094 1.051l-1.073 1.39a3.608 3.608 0 0 0-2.227-.78c-.57 0-.822.227-.822.543 0 .961 4.305.26 4.305 3.064 0 1.515-1.13 2.52-3.174 2.52zm10.355 0c-.616 0-1.176-.238-1.633-.78v2.724h-1.758v-7.54h1.758v.633a2.066 2.066 0 0 1 1.633-.769c1.382 0 2.42 1.018 2.42 2.86 0 1.854-1.038 2.872-2.42 2.872zm-.582-1.538c.685 0 1.21-.508 1.21-1.334 0-.813-.525-1.322-1.21-1.322-.377 0-.834.203-1.05.497v1.662c.216.283.673.497 1.05.497zm5.674 1.402h-1.758v-5.46h1.758v.667c.366-.44 1.062-.814 1.724-.814v1.673a2.03 2.03 0 0 0-.434-.045c-.456 0-1.061.192-1.29.497v3.482zm5.16.136c-1.872 0-3.002-1.334-3.002-2.872 0-1.537 1.13-2.86 3.003-2.86 1.895 0 3.014 1.323 3.014 2.86 0 1.538-1.119 2.872-3.014 2.872zm0-1.538c.777 0 1.211-.599 1.211-1.334 0-.723-.434-1.322-1.21-1.322-.765 0-1.187.599-1.187 1.322 0 .735.422 1.334 1.187 1.334zm6.03 1.538c-1.12 0-1.725-.554-1.725-1.605v-2.476h-.913v-1.515h.913v-1.492h1.747v1.492h1.119v1.515h-1.119v1.99c0 .316.183.553.491.553.194 0 .388-.067.445-.135l.343 1.311c-.217.204-.65.362-1.302.362zm4.658 0c-1.873 0-3.003-1.334-3.003-2.872 0-1.537 1.13-2.86 3.003-2.86 1.895 0 3.014 1.323 3.014 2.86 0 1.538-1.12 2.872-3.014 2.872zm0-1.538c.776 0 1.21-.599 1.21-1.334 0-.723-.434-1.322-1.21-1.322-.765 0-1.188.599-1.188 1.322 0 .735.423 1.334 1.188 1.334zm6.587 1.538c-1.724 0-3.014-1.153-3.014-2.872 0-1.706 1.29-2.86 3.014-2.86 1.188 0 1.93.52 2.261 1.007l-1.142 1.05c-.217-.316-.57-.52-1.039-.52-.73 0-1.29.498-1.29 1.323 0 .826.56 1.334 1.29 1.334a1.25 1.25 0 0 0 1.04-.53l1.141 1.062c-.331.474-1.073 1.006-2.26 1.006zm5.698 0c-1.873 0-3.003-1.334-3.003-2.872 0-1.537 1.13-2.86 3.003-2.86 1.895 0 3.014 1.323 3.014 2.86 0 1.538-1.12 2.872-3.014 2.872zm0-1.538c.776 0 1.21-.599 1.21-1.334 0-.723-.434-1.322-1.21-1.322-.765 0-1.188.599-1.188 1.322 0 .735.423 1.334 1.188 1.334zm5.697 1.402h-1.758v-7.54h1.758v7.54z" fill="#A2A2AD"/><path d="M163.333 379.043h-1.784v-6.018l-1.394 1.405-1.017-1.057 2.638-2.624h1.557v8.294zm4.722.15c-2.399 0-3.466-2.152-3.466-4.29 0-2.14 1.067-4.278 3.466-4.278 2.386 0 3.466 2.139 3.466 4.278 0 2.138-1.08 4.29-3.466 4.29zm0-1.567c1.193 0 1.645-1.194 1.645-2.723 0-1.53-.452-2.711-1.645-2.711-1.206 0-1.658 1.181-1.658 2.71 0 1.53.452 2.724 1.658 2.724zm7.787 1.567c-2.4 0-3.467-2.152-3.467-4.29 0-2.14 1.068-4.278 3.467-4.278 2.386 0 3.466 2.139 3.466 4.278 0 2.138-1.08 4.29-3.466 4.29zm0-1.567c1.193 0 1.645-1.194 1.645-2.723 0-1.53-.452-2.711-1.645-2.711-1.206 0-1.658 1.181-1.658 2.71 0 1.53.452 2.724 1.658 2.724zm6.342-2.873c-1.281 0-2.122-.882-2.122-2.039 0-1.169.841-2.089 2.122-2.089 1.294 0 2.135.92 2.135 2.09 0 1.156-.841 2.038-2.135 2.038zm.126 4.29h-.942l5.35-8.294h.954l-5.362 8.294zm4.483.15c-1.28 0-2.122-.896-2.122-2.052 0-1.169.841-2.09 2.122-2.09s2.135.921 2.135 2.09c0 1.156-.854 2.052-2.135 2.052zm-4.609-5.41c.578 0 .992-.422.992-1.069 0-.696-.414-1.107-.992-1.107-.565 0-.992.41-.992 1.107 0 .647.427 1.07.992 1.07zm4.61 4.44c.577 0 1.004-.41 1.004-1.082 0-.684-.427-1.107-1.005-1.107-.578 0-.992.423-.992 1.107 0 .671.414 1.082.992 1.082zm9.469.97c-1.608 0-2.763-.535-3.542-1.318l.967-1.343a3.69 3.69 0 0 0 2.663 1.119c.98 0 1.456-.448 1.456-.92 0-1.468-4.822-.46-4.822-3.582 0-1.38 1.205-2.524 3.177-2.524 1.332 0 2.437.398 3.266 1.157l-.993 1.293c-.678-.622-1.582-.908-2.436-.908-.766 0-1.193.336-1.193.833 0 1.318 4.81.435 4.81 3.532 0 1.517-1.093 2.66-3.353 2.66zm12.245-.15h-2.035l-.515-1.405h-3.592l-.527 1.405h-2.035l3.24-8.294h2.236l3.228 8.294zm-3.04-2.959l-1.306-3.569-1.306 3.569h2.613zm5.602 2.96h-1.784v-8.295h5.928v1.555h-4.144v1.753h4.056v1.554h-4.056v3.432zm11.316 0h-5.928v-8.295h5.928v1.555h-4.145v1.753h4.057v1.554h-4.057v1.878h4.145v1.554zm12.42 0h-2.034l-.515-1.406h-3.592l-.527 1.405h-2.035l3.24-8.294h2.236l3.227 8.294zm-3.039-2.96l-1.306-3.569-1.306 3.569h2.612zm11.316 2.96h-1.72l-3.994-5.41v5.41h-1.784v-8.295h1.834l3.88 5.21v-5.21h1.784v8.294zm4.96 0h-3.302v-8.295h3.303c2.625 0 4.446 1.654 4.446 4.154s-1.821 4.14-4.446 4.14zm0-1.555c1.658 0 2.626-1.181 2.626-2.586 0-1.468-.905-2.6-2.625-2.6h-1.52v5.186h1.52zm11.907 1.704c-1.608 0-2.763-.535-3.542-1.318l.967-1.343a3.69 3.69 0 0 0 2.663 1.119c.98 0 1.456-.448 1.456-.92 0-1.468-4.822-.46-4.822-3.582 0-1.38 1.205-2.524 3.177-2.524 1.331 0 2.437.398 3.266 1.157l-.993 1.293c-.678-.622-1.582-.908-2.436-.908-.766 0-1.193.336-1.193.833 0 1.318 4.81.435 4.81 3.532 0 1.517-1.093 2.66-3.353 2.66zm10.486-.15h-5.927v-8.294h5.927v1.555h-4.144v1.753h4.057v1.554h-4.057v1.878h4.144v1.554zm5.451.15c-2.512 0-4.458-1.741-4.458-4.29 0-2.55 1.946-4.29 4.458-4.29 1.846 0 2.914.994 3.504 2.027l-1.532.746c-.352-.672-1.105-1.207-1.972-1.207-1.52 0-2.625 1.157-2.625 2.724 0 1.566 1.105 2.723 2.625 2.723.867 0 1.62-.522 1.972-1.206l1.532.733c-.603 1.032-1.658 2.04-3.504 2.04zm8.352 0c-2.55 0-3.78-1.418-3.78-3.457v-4.987h1.808v4.925c0 1.156.678 1.952 1.972 1.952 1.293 0 1.96-.796 1.96-1.952v-4.925h1.82v4.974c0 2.065-1.23 3.47-3.78 3.47zm12.207-.15H294.4l-1.645-2.947h-1.306v2.947h-1.784v-8.294h3.919c1.746 0 2.813 1.132 2.813 2.674 0 1.467-.93 2.25-1.834 2.462l1.884 3.158zm-3.127-4.5c.716 0 1.256-.424 1.256-1.12 0-.696-.54-1.12-1.256-1.12h-1.871v2.24h1.871zm10.349 4.5h-5.928v-8.294h5.928v1.555h-4.145v1.753h4.057v1.554h-4.057v1.878h4.145v1.554z" fill="#17191E"/></g></svg>