<svg width="46" height="36" xmlns="http://www.w3.org/2000/svg"><path d="M46 33.918L37.34 2.777l-7.465 2.07.825 2.965h-8.303v-4.13H14.65v3.056h-4.196V0H0v36h32.115V12.901l6.42 23.086L46 33.917zM16.135 5.164h4.777v3.672h-4.777V5.164zm0 9.823h4.777v16.862h-4.777V14.987zm0-1.483v-.851h4.777v.85h-4.777zm0-2.334v-.85h4.777v.85h-4.777zM8.97 31.632H1.485V4.349H8.97v27.283zm0-30.15v1.384H1.485V1.483H8.97zM1.485 34.518v-1.402H8.97v1.402H1.485zm13.165 0h-4.196V8.221h4.196v26.296zm1.485 0v-1.185h4.777v1.185h-4.777zm14.495 0h-8.233V9.294h8.233v25.223zm8.939-.356l-5.222-18.778 4.602-1.276 5.223 18.778-4.603 1.276zm-5.62-20.207l-.409-1.471 4.603-1.276.41 1.471-4.603 1.276zm2.357-9.352l1.44 5.176-4.603 1.276-1.44-5.176 4.603-1.276z" fill="#E5CA37"/></svg>