<svg width="8" height="11" xmlns="http://www.w3.org/2000/svg"><path d="M7.778 4.125H7.11v-.917C7.111 1.44 5.715 0 4 0 2.284 0 .889 1.44.889 3.208v.917H.222a.226.226 0 0 0-.222.23v5.728c0 .506.399.917.889.917H7.11c.49 0 .889-.411.889-.917V4.354c0-.126-.1-.229-.222-.229zm-3.03 4.637a.196.196 0 0 1-.062.167A.27.27 0 0 1 4.5 9h-1a.27.27 0 0 1-.186-.071.196.196 0 0 1-.063-.167l.158-1.216C3.153 7.386 3 7.134 3 6.857 3 6.384 3.448 6 4 6s1 .384 1 .857c0 .277-.153.53-.41.69l.159 1.215zM6 4H2V3c0-1.103.897-2 2-2s2 .897 2 2v1z" fill="#7ED321"/></svg>