<svg width="167" height="32" xmlns="http://www.w3.org/2000/svg"><g fill="none"><path d="M25.65 30.32h-8.525a.516.516 0 0 1-.529-.53v-.605c0-.302.227-.529.529-.529h8.524c.302 0 .528.227.528.53v.604c0 .303-.226.53-.528.53zm3.846-12.098c.453-2.268 1.51-3.402 3.697-4.461 3.772-1.815 6.79-5.822 8.072-7.637a.568.568 0 0 0 0-.68c-.076-.227-.151-.454.075-.68 0-.152.076-.152.151-.227.302-.152.528-.076.755 0 .301.226.377.604.15.907-.075.151-.226.227-.301.227-.227.075-.377.227-.377.453-.83 3.856-2.113 7.788-3.546 11.19-.076 0-.15-.075-.302-.075-.452 0-.83.302-.83.756a.69.69 0 0 0 .227.53c.15.15.15.453.075.68a111.73 111.73 0 0 1-3.847 7.863c-.151.227-.377.378-.604.378h-4.45c-.453 0-.755-.378-.68-.756l1.735-8.468zm3.395 11.871h-4.903c-.227 0-.377-.152-.377-.378v-.454c0-.227.15-.378.377-.378h4.903c.227 0 .377.151.377.378v.454c0 .226-.15.378-.377.378zM13.277 18.222c-.452-2.268-1.509-3.402-3.696-4.461-3.772-1.89-6.865-5.898-8.072-7.712-.151-.151-.151-.454 0-.68.075-.228.15-.454-.076-.681 0-.076-.075-.076-.15-.151-.302-.152-.529-.076-.755 0-.302.226-.377.68-.15.907.15.151.226.227.376.227.227.075.378.227.378.453.754 3.932 2.112 7.864 3.545 11.266.076 0 .151-.075.302-.075.453 0 .83.302.83.756a.687.687 0 0 1-.227.529c-.15.151-.15.454-.075.68a111.73 111.73 0 0 0 3.847 7.864c.151.227.378.378.604.378h4.375c.453 0 .755-.378.68-.756l-1.736-8.544zM9.882 30.093h4.904c.226 0 .377-.152.377-.378v-.454c0-.227-.15-.378-.377-.378H9.882c-.226 0-.377.151-.377.378v.454c0 .226.151.378.377.378zm14.786-21.7c-1.282-2.344-2.187-5.217-2.64-6.654a.467.467 0 0 1 .076-.53c.15-.226.226-.529 0-.907-.076-.075-.076-.15-.227-.15-.679-.379-1.358.075-1.358.604 0 .151.076.303.151.454.076.151.151.302.076.529-.453 1.437-1.358 4.31-2.64 6.654-2.717 4.99-4.602 4.839-3.697 8.392.452 1.89 1.735 8.242 2.112 10.132.075.303.377.53.679.53h8.449a.725.725 0 0 0 .68-.53c.376-1.89 1.659-8.241 2.111-10.132.755-3.553-1.056-3.402-3.772-8.392zm-3.998 8.922c-.075-.076-.15-.076-.15-.152-.378-.529-.227-1.134.226-1.36.15-.076.226-.303.226-.53V1.588h.754v13.685c0 .227.076.378.302.53a.832.832 0 0 1 .453.756c-.076.756-.906 1.285-1.81.756z" fill="#E5CA37"/><path d="M51.53 18.678h1.745V7.8H51.53V6.47h6.672c1.364 0 2.426.313 3.184.86.758.627 1.137 1.487 1.137 2.583 0 2.035-1.061 3.209-3.26 3.6l2.881 5.087h1.896v1.252h-3.185l-3.412-6.182h-1.516v-1.33h1.896c.985 0 1.743-.236 2.122-.705.455-.47.607-1.018.607-1.722s-.228-1.174-.607-1.643c-.379-.392-.985-.627-1.82-.627h-3.108v10.879h1.744v1.252h-5.307v-1.096h.076zm15.467.939a4.479 4.479 0 0 1-1.668-1.721 5.869 5.869 0 0 1-.606-2.583c0-1.017.227-1.878.606-2.583.38-.782.986-1.33 1.668-1.721.683-.392 1.517-.626 2.502-.626.91 0 1.744.234 2.502.626.758.391 1.29 1.017 1.668 1.721a5.86 5.86 0 0 1 .607 2.583 5.956 5.956 0 0 1-.607 2.66c-.379.784-.985 1.331-1.668 1.8a5.402 5.402 0 0 1-2.502.627c-.985-.157-1.82-.391-2.502-.783zm4.701-1.8c.53-.626.834-1.565.834-2.66 0-1.096-.303-1.957-.834-2.583-.53-.626-1.289-.94-2.274-.94-.91 0-1.668.314-2.2.94-.53.626-.833 1.487-.833 2.583 0 1.095.303 1.956.834 2.582a2.824 2.824 0 0 0 2.199 1.018c.985.078 1.668-.235 2.274-.94zm4.928 4.461h.986c.455 0 .758 0 .985-.078.228-.078.455-.235.607-.391.152-.235.303-.548.455-1.018l.455-1.408h-.683l-3.26-7.513h-1.668v-1.253h4.625v1.253H77.84l2.654 6.339 2.35-6.34h-1.516v-1.252h4.625v1.253h-1.44l-3.261 8.687c-.303.939-.607 1.565-.834 1.956-.227.391-.53.704-.91.94-.379.234-.985.312-1.668.312h-1.137v-1.487h-.076zm18.954-3.6v1.252H92.7l-.076-.86c-.455.39-.986.626-1.441.86-.455.235-.986.235-1.592.235-.91 0-1.592-.235-2.199-.782-.53-.548-.834-1.174-.834-1.957 0-1.017.303-1.8.986-2.191.682-.47 1.516-.705 2.578-.705.758 0 1.592.079 2.426.313v-1.017c0-.704-.152-1.252-.531-1.643-.38-.392-.91-.548-1.516-.548-.455 0-.91.078-1.517.235a8.874 8.874 0 0 0-1.516.626l-.53-1.174c.53-.313 1.06-.626 1.743-.783.682-.156 1.289-.235 1.82-.235 1.137 0 2.047.313 2.73.861.681.626.985 1.409.985 2.426V18.6h1.364v.078zm-6.975-.156c.303.313.758.47 1.213.47.91 0 1.82-.314 2.73-1.018V15.86c-.758-.157-1.592-.313-2.35-.313-.607 0-1.062.156-1.517.391-.379.313-.606.704-.606 1.409.075.47.227.86.53 1.174zm8.568 1.408v-1.252h1.668l-.076-10.956h-1.592V6.47h3.26l.075 12.13h1.441v1.252h-4.776zm9.78 0v-1.252h1.744V7.8h-1.744V6.47h10.993v3.99h-1.44V7.8h-5.99v4.54h3.943v-1.566h.91v4.46h-.91V13.67h-3.943v5.008h6.066v-2.817h1.44v4.07zm19.409-4.852c.38.235.758.47.986.861.227.391.379.861.379 1.565 0 .861-.303 1.566-.986 2.035-.682.47-1.44.704-2.35.704-.607 0-1.137-.078-1.592-.313-.531-.156-.91-.47-1.213-.782v.782h-1.29v-3.208h1.138l.076 1.017c.227.391.606.704 1.137.94.455.234.986.312 1.516.312.607 0 1.062-.156 1.44-.391.38-.235.532-.548.532-1.017 0-.47-.152-.783-.455-1.018-.304-.235-.834-.391-1.592-.548l-1.213-.313c-.91-.234-1.593-.547-2.048-.939-.454-.391-.682-1.017-.682-1.8 0-.782.303-1.487.91-1.956.606-.47 1.365-.705 2.35-.705.455 0 .91.079 1.44.235a2.84 2.84 0 0 1 1.138.704v-.704h1.289v3.209h-1.137l-.152-1.174c-.227-.313-.53-.548-.986-.704-.455-.157-.91-.313-1.289-.313-.53 0-.985.078-1.288.313-.38.234-.531.547-.531.939 0 .313.152.626.379.782.227.157.682.392 1.289.548l1.137.235c.682.313 1.213.47 1.668.704zm-5.155 2.035s0 .078 0 0zm14.253-2.035c.38.235.758.47.986.861.227.391.379.861.379 1.565 0 .861-.303 1.566-.986 2.035-.682.47-1.44.704-2.35.704-.607 0-1.137-.078-1.592-.313-.531-.156-.91-.47-1.213-.782v.782h-1.29v-3.208h1.138l.076 1.017c.227.391.606.704 1.137.94.455.234.986.312 1.516.312.607 0 1.062-.156 1.441-.391.379-.235.53-.548.53-1.017 0-.47-.151-.783-.454-1.018-.303-.235-.834-.391-1.592-.548l-1.213-.313c-.91-.234-1.593-.547-2.048-.939-.454-.391-.682-1.017-.682-1.8 0-.782.303-1.487.91-1.956.606-.47 1.365-.705 2.35-.705.455 0 .91.079 1.44.235a2.84 2.84 0 0 1 1.138.704v-.704h1.289v3.209h-1.137l-.152-1.174c-.227-.313-.53-.548-.986-.704-.454-.157-.91-.313-1.288-.313-.531 0-.986.078-1.29.313-.378.234-.53.547-.53.939 0 .313.152.626.379.782.227.157.682.392 1.289.548l1.137.235c.683.313 1.289.47 1.668.704zm-5.155 2.035s.075.078 0 0zm16.755 1.565v1.252h-2.805l-.076-.86c-.455.39-.986.626-1.44.86-.455.157-.986.235-1.593.235-.91 0-1.592-.235-2.198-.782-.531-.548-.834-1.174-.834-1.957 0-1.017.303-1.8.985-2.191.683-.47 1.517-.705 2.578-.705.758 0 1.592.079 2.426.313v-1.017c0-.704-.151-1.252-.53-1.643-.38-.392-.91-.548-1.517-.548-.455 0-.91.078-1.516.235a8.874 8.874 0 0 0-1.516.626l-.531-1.174c.53-.313 1.061-.626 1.744-.783.682-.156 1.288-.235 1.82-.235 1.136 0 2.046.313 2.729.861.682.626.985 1.409.985 2.426V18.6h1.29v.078zm-6.975-.156c.303.313.758.47 1.213.47.91 0 1.82-.314 2.73-1.018V15.86c-.759-.157-1.593-.313-2.35-.313-.607 0-1.062.156-1.517.391-.38.313-.607.704-.607 1.409.076.47.228.86.531 1.174zm8.871 3.756h.985c.455 0 .758 0 .986-.078.227-.078.455-.235.606-.391.152-.157.304-.548.455-1.018l.455-1.408h-.682l-3.26-7.513h-1.668v-1.253h4.625v1.253h-1.29l2.654 6.339 2.35-6.34h-1.516v-1.252h4.625v1.253h-1.44l-3.26 8.687c-.304.939-.607 1.565-.835 1.956-.227.391-.53.704-.91.94-.378.234-.985.312-1.667.312h-1.138v-1.487h-.075zm16.452-7.2c.379.235.758.47.985.861.228.391.38.861.38 1.565 0 .861-.304 1.566-.986 2.035-.682.47-1.44.704-2.35.704-.607 0-1.138-.078-1.593-.313-.53-.156-.91-.47-1.213-.782v.782h-1.289v-3.208h1.138l.076 1.017c.227.391.606.704 1.137.94.455.234.985.312 1.516.312.607 0 1.062-.156 1.44-.391.38-.235.531-.548.531-1.017 0-.47-.151-.783-.455-1.018-.303-.235-.833-.391-1.592-.548l-1.213-.313c-.91-.234-1.592-.547-2.047-.939-.455-.391-.682-1.017-.682-1.8 0-.782.303-1.487.91-1.956.606-.47 1.364-.705 2.35-.705.455 0 .91.079 1.44.235a2.84 2.84 0 0 1 1.138.704v-.704h1.289v3.209h-1.138l-.151-1.174c-.228-.313-.531-.548-.986-.704-.455-.157-.91-.313-1.289-.313-.53 0-.985.078-1.289.313-.379.234-.53.547-.53.939 0 .313.151.626.379.782.227.157.682.392 1.289.548l1.137.235c.682.313 1.213.47 1.668.704zm-5.156 2.035s0 .078 0 0zM53.654 26.244c-.759 0-1.365.545-1.365 1.556 0 1.167.758 1.867 1.668 1.867.606 0 .834-.234.834-.545v-.7h-.834c-.076 0-.152-.078-.152-.233 0-.156 0-.311.076-.389h1.516c.076 0 .152.078.152.233v1.09c0 .7-.607 1.166-1.592 1.166-1.365 0-2.426-1.011-2.426-2.489 0-1.4.91-2.256 2.123-2.256.758 0 1.364.312 1.743.856a.245.245 0 0 1 .076.156c0 .077 0 .155-.151.155-.152.078-.304.156-.531.156-.152-.311-.607-.623-1.137-.623zm5.231.856c0 .078 0 .078-.076.156-.076.077-.151.233-.303.31-.152-.155-.38-.155-.607-.155-.379 0-.682.233-.834.7v2.256h-.455c-.151 0-.227-.078-.227-.156v-3.344c.152-.078.303-.078.455-.078.152 0 .227.078.227.155v.39c.228-.312.531-.623.986-.623.227 0 .38.078.53.156.228.077.304.077.304.233zm3.563 2.644c0 .078.076.156.076.234 0 .155-.151.31-.455.31-.227 0-.53-.155-.606-.544a1.205 1.205 0 0 1-1.062.623c-.682 0-1.137-.467-1.137-1.09 0-.7.53-1.166 1.365-1.166.303 0 .606.078.834.156v-.156c0-.467-.304-.778-.986-.778a1.5 1.5 0 0 0-.834.234c-.076-.078-.076-.234-.076-.311 0-.234.455-.467 1.138-.467.91 0 1.44.467 1.44 1.4v1.322c0 .233.076.311.228.311h.075v-.078zm-1.061-.544v-.389c-.152-.078-.53-.078-.758-.078-.531 0-.758.156-.758.545 0 .31.303.544.606.544.38-.078.758-.233.91-.622zm2.047 1.089c-.152 0-.227-.078-.227-.156V26.79c.151-.078.303-.078.454-.078.152 0 .228.078.228.156v.233c.227-.233.682-.467 1.061-.467.758 0 1.213.545 1.213 1.556v1.167c0 .233.076.31.228.31h.151c0 .078.076.156.076.234 0 .156-.151.311-.455.311-.303 0-.606-.155-.606-.855v-1.323c0-.544-.228-.855-.758-.855a1.38 1.38 0 0 0-.91.389v2.644h-.455v.078zm6.976-.856c0 .234.075.311.227.311h.151c0 .078.076.156.076.234 0 .155-.152.31-.455.31-.227 0-.53-.155-.606-.621-.228.389-.683.7-1.138.7-.834 0-1.44-.623-1.44-1.711 0-1.167.834-1.945 1.668-1.945.303 0 .682.078.91.311v-1.555h.455c.151 0 .227.077.227.155v3.811h-.076zm-.683-.466v-1.323c-.228-.233-.455-.31-.758-.31-.683 0-1.138.544-1.138 1.322 0 .7.304 1.166.91 1.166.455 0 .834-.31.986-.855zm6.368 2.722c-.151 0-.227-.078-.227-.156v-1.789c-.227.39-.682.623-1.137.623-.834 0-1.44-.623-1.44-1.711 0-1.167.833-1.945 1.667-1.945.303 0 .683.078.91.311v-.233h.455c.152 0 .227.078.227.155v4.745h-.455zm-.227-2.722v-1.323c-.227-.233-.455-.31-.758-.31-.683 0-1.137.544-1.137 1.322 0 .7.303 1.166.91 1.166.454 0 .833-.31.985-.855zm4.701-.156c0 1.011-.607 1.556-1.517 1.556-.91 0-1.516-.623-1.516-1.556V26.79c.152-.078.303-.078.455-.078.151 0 .227.078.227.156v2.022c0 .544.38.933.834.933.455 0 .834-.31.834-.933v-2.1h.455c.152 0 .228.078.228.155v1.867zm4.094.933c0 .078.076.156.076.234 0 .155-.152.31-.455.31-.228 0-.531-.155-.607-.544a1.205 1.205 0 0 1-1.061.623c-.683 0-1.138-.467-1.138-1.09 0-.7.531-1.166 1.365-1.166.303 0 .607.078.834.156v-.156c0-.467-.303-.778-.985-.778a1.5 1.5 0 0 0-.834.234c-.076-.078-.076-.234-.076-.311 0-.234.455-.467 1.137-.467.91 0 1.44.467 1.44 1.4v1.322c0 .233.076.311.228.311h.076v-.078zM83.6 29.2v-.389c-.151-.078-.53-.078-.758-.078-.53 0-.758.156-.758.545 0 .31.303.544.607.544.379-.078.758-.233.91-.622zm1.745.078v-3.734c.152-.077.303-.077.455-.077.152 0 .227.077.227.155v3.734c0 .31.152.466.38.466.151 0 .303 0 .379-.078.075.078.075.156.075.312 0 .155-.227.388-.682.388-.53-.077-.834-.466-.834-1.166zm2.047-3.422c0-.234.152-.39.38-.39.227 0 .378.156.378.467 0 .234-.151.39-.379.39-.227 0-.379-.156-.379-.467zm.076.933c.152-.078.303-.078.455-.078.152 0 .227.078.227.156v2.489c0 .233.076.31.228.31h.151c0 .078.076.156.076.234 0 .156-.151.311-.455.311-.303 0-.606-.155-.606-.855v-2.567h-.076zm2.122 2.333v-1.71h-.454c-.076 0-.152-.079-.152-.234 0-.156 0-.234.076-.39h.53v-1.01c.152-.078.304-.078.456-.078.151 0 .227.078.227.156v.855h.986c.076 0 .151.078.151.233v.39h-1.213v1.788c0 .39.228.622.607.622.152 0 .379 0 .53-.077.076.077.076.233.076.31 0 .156-.303.39-.758.39-.682 0-1.061-.39-1.061-1.245zm2.654 1.945a.81.81 0 0 1 .531-.778c-.379-.233-.606-.7-.606-1.322v-2.1c.151-.078.303-.078.455-.078.151 0 .227.078.227.155v1.945c0 .544.227.855.758.855.303 0 .683-.155.91-.388V26.71h.455c.151 0 .227.078.227.156v3.344c0 .856-.53 1.633-1.743 1.633-.759.078-1.214-.31-1.214-.777zm.986-.7c-.227.155-.303.31-.303.544 0 .233.227.389.606.389.531 0 .986-.311.986-.933V29.9c-.227.233-.682.467-1.061.467h-.228zm6.445 0c-.91 0-1.668-.623-1.668-1.867 0-1.167.758-1.867 1.668-1.867.91 0 1.667.623 1.667 1.867s-.758 1.867-1.667 1.867zm0-.623c.53 0 .985-.388.985-1.166 0-.856-.53-1.245-.985-1.245-.455 0-.986.39-.986 1.167 0 .856.455 1.244.986 1.244zm3.487.545h-.455c-.151 0-.227-.078-.227-.156v-2.722h-.455c-.076 0-.152-.078-.152-.233 0-.156 0-.234.076-.39h.607v-.155c0-.777.454-1.166 1.061-1.166.455 0 .834.233.834.389 0 .077-.076.233-.076.31-.151-.077-.379-.077-.53-.077-.38 0-.531.155-.531.544v.156h.985c.076 0 .152.078.152.233v.39h-1.137v2.877h-.152zm8.264-3.5c.152 0 .228.078.152.155-.152.934-.455 2.178-.91 3.19-.076.077-.152.155-.227.155h-.683l-.682-2.722c-.152.777-.38 1.789-.683 2.566-.075.078-.151.156-.227.156h-.682l-.986-3.345a.809.809 0 0 1 .53-.233c.077 0 .152 0 .152.078l.683 2.8c.303-.778.53-1.789.682-2.8h.607c.151 0 .227.078.227.155l.682 2.645c.304-.778.531-1.789.683-2.8h.682zm3.412.311c0 .078 0 .078-.076.156-.076.077-.152.233-.303.31-.152-.155-.38-.155-.607-.155-.379 0-.682.233-.834.7v2.256h-.455c-.151 0-.227-.078-.227-.156v-3.344c.152-.078.303-.078.455-.078.151 0 .227.078.227.155v.39c.228-.312.531-.623.986-.623.227 0 .379.078.53.156.304.077.304.077.304.233zm.531-1.244c0-.234.151-.39.379-.39.227 0 .379.156.379.467 0 .234-.152.39-.38.39-.15 0-.378-.156-.378-.467zm.075.933c.152-.078.304-.078.455-.078.152 0 .228.078.228.156v2.489c0 .233.076.31.227.31h.152c0 .078.076.156.076.234 0 .156-.152.311-.455.311-.303 0-.607-.155-.607-.855v-2.567h-.076zm2.123 2.333v-1.71h-.455c-.075 0-.151-.079-.151-.234 0-.156 0-.234.076-.39h.53v-1.01c.152-.078.304-.078.455-.078.152 0 .228.078.228.156v.855h.985c.076 0 .152.078.152.233v.39h-1.213v1.788c0 .39.227.622.606.622.152 0 .38 0 .531-.077.076.077.076.233.076.31 0 .156-.303.39-.758.39-.607 0-1.062-.39-1.062-1.245zm2.578-3.266c0-.234.152-.39.38-.39.227 0 .378.156.378.467 0 .234-.151.39-.379.39-.151 0-.379-.156-.379-.467zm.076.933c.152-.078.303-.078.455-.078.151 0 .227.078.227.156v2.489c0 .233.076.31.228.31h.151c0 .078.076.156.076.234 0 .156-.151.311-.455.311-.303 0-.606-.155-.606-.855v-2.567h-.076zm2.047 3.5c-.152 0-.227-.078-.227-.156V26.79c.151-.078.303-.078.454-.078.152 0 .228.078.228.156v.233c.227-.233.682-.467 1.061-.467.758 0 1.213.545 1.213 1.556v1.167c0 .233.076.31.228.31h.151c0 .078.076.156.076.234 0 .156-.151.311-.455.311-.303 0-.606-.155-.606-.855v-1.323c0-.544-.228-.855-.758-.855a1.38 1.38 0 0 0-.91.389v2.644h-.455v.078zm3.867.7c0-.311.227-.622.606-.856-.455-.233-.758-.777-.758-1.477 0-1.167.834-1.945 1.668-1.945.303 0 .682.078.91.311v-.233h.455c.151 0 .227.078.227.155v3.267c0 .856-.606 1.711-1.895 1.711-.758 0-1.213-.389-1.213-.933zm2.502-2.022v-1.323c-.228-.233-.455-.31-.759-.31-.682 0-1.137.544-1.137 1.322 0 .7.303 1.166.91 1.166.38-.078.758-.31.986-.855zm-1.517 1.4c-.227.155-.303.389-.303.622 0 .233.227.389.607.389.606 0 1.137-.39 1.137-1.09v-.544c-.228.39-.683.623-1.137.623h-.304zm6.217-3.034c-.379 0-.53.156-.53.39 0 .31.227.466.758.544.758.155 1.061.544 1.061 1.089 0 .622-.455 1.01-1.289 1.01-.682 0-1.137-.31-1.137-.544 0-.078.076-.233.076-.31.303.155.606.232.985.232.455 0 .683-.155.683-.388 0-.234-.152-.39-.607-.467-.834-.233-1.213-.545-1.213-1.167s.455-1.01 1.213-1.01c.531 0 .986.232 1.213.621 0 .078.076.078.076.156s-.076.155-.151.155c-.152.078-.304.156-.455.156-.076-.311-.38-.467-.683-.467zm2.047-1.477c0-.234.152-.39.38-.39.227 0 .378.156.378.467 0 .234-.151.39-.379.39-.151 0-.379-.156-.379-.467zm.076.933c.152-.078.303-.078.455-.078.152 0 .227.078.227.156v2.489c0 .233.076.31.228.31h.152c0 .078.075.156.075.234 0 .156-.151.311-.455.311-.303 0-.606-.155-.606-.855v-2.567h-.076zm2.047 3.5c-.151 0-.227-.078-.227-.156V26.79c.151-.078.303-.078.455-.078.151 0 .227.078.227.156v.233c.228-.233.682-.467 1.062-.467.758 0 1.213.545 1.213 1.556v1.167c0 .233.075.31.227.31h.152c0 .078.076.156.076.234 0 .156-.152.311-.455.311-.304 0-.607-.155-.607-.855v-1.323c0-.544-.227-.855-.758-.855a1.38 1.38 0 0 0-.91.389v2.644h-.455v.078zm6.748-2.722c0 .077-.076.155-.152.155-.151.078-.303.156-.455.156a.743.743 0 0 0-.758-.622c-.53 0-.91.388-.91 1.088 0 .856.607 1.323 1.29 1.323a1.5 1.5 0 0 0 .833-.234c.076.078.076.234.076.311 0 .234-.379.467-1.061.467-.986 0-1.896-.7-1.896-1.944 0-1.09.683-1.711 1.668-1.711.607 0 1.137.31 1.29.7 0 .233.075.31.075.31zm3.26 2.333c0 .233-.38.467-1.061.467-.986 0-1.744-.778-1.744-1.79 0-1.166.758-1.866 1.744-1.866.834 0 1.364.545 1.364 1.245 0 .233-.076.388-.076.544-.075.233-.227.311-.53.311h-1.744c.076.622.53.933 1.137.933.303 0 .53-.077.834-.233a.865.865 0 0 1 .076.389zm-2.047-1.633h1.668c0-.078.076-.156.076-.234 0-.466-.228-.7-.758-.7-.531 0-.91.311-.986.934zm5.307-1.323l-.151-.155c0-.078 0-.156.075-.233.228-.545.759-.934 1.517-.934.91 0 1.592.622 1.592 1.556 0 1.01-.683 1.789-1.668 2.489h1.592c.076 0 .152.077.152.233v.389h-2.806c-.151 0-.227 0-.227-.156-.076-.077-.076-.233-.152-.389 1.138-.7 2.275-1.555 2.275-2.644 0-.544-.38-.856-.834-.856-.455 0-.758.312-.91.856-.152 0-.379-.078-.455-.156zm3.943 1.089c0-1.477.682-2.41 1.743-2.41 1.062 0 1.744.855 1.744 2.41 0 1.478-.606 2.411-1.744 2.411-1.137-.077-1.743-.933-1.743-2.41zm.758-.077c0 1.088.303 1.788 1.061 1.788.607 0 .986-.544.986-1.71 0-1.09-.303-1.79-1.062-1.79-.682 0-.985.623-.985 1.712zm3.487.077c0-1.477.683-2.41 1.744-2.41 1.062 0 1.744.855 1.744 2.41 0 1.478-.607 2.411-1.744 2.411-1.137-.077-1.744-.933-1.744-2.41zm.683-.077c0 1.088.303 1.788 1.061 1.788.607 0 .986-.544.986-1.71 0-1.09-.303-1.79-1.062-1.79-.606 0-.985.623-.985 1.712zm5.534-2.178c.152-.078.38-.156.759-.156.227 0 .303.078.303.234v2.877h.455c.076 0 .151.078.151.234v.389h-.606v.933h-.53c-.153 0-.228-.078-.228-.156v-.777h-1.896c-.151 0-.227 0-.227-.156-.076-.078-.076-.233-.152-.389.228-1.167 1.062-2.333 1.971-3.033zm.228.622c-.607.467-1.289 1.478-1.516 2.333h1.516V26.4z" fill="#FFF8D1"/></g></svg>