<svg width="68" height="27" xmlns="http://www.w3.org/2000/svg" xmlns:xlink="http://www.w3.org/1999/xlink"><defs><rect id="a" width="60.257" height="22.052" rx="11.026"/></defs><g fill="none" fill-rule="evenodd"><g transform="translate(0 .683)"><g transform="translate(6.871 3.007)"><mask id="b" fill="#fff"><use xlink:href="#a"/></mask><path d="M11.629 1.002C5.79 1.002 1.057 5.49 1.057 11.026c0 5.536 4.733 10.024 10.572 10.024h37c5.838 0 10.57-4.488 10.57-10.024 0-5.536-4.732-10.024-10.57-10.024h-37zm0-2.004h37c7.005 0 12.685 5.385 12.685 12.028 0 6.643-5.68 12.029-12.686 12.029h-37c-7.006 0-12.685-5.386-12.685-12.029S4.623-1.002 11.629-1.002z" fill="#BFBFBF" fill-rule="nonzero" mask="url(#b)"/></g><ellipse fill="#FFB518" fill-rule="nonzero" cx="12.659" cy="14.008" rx="12.633" ry="11.978"/><ellipse fill="#FFF" fill-rule="nonzero" cx="12.659" cy="14.008" rx="8.589" ry="8.144"/><path d="M7.48 10.425l-1.084 1.052s3.832 3.96 5.629 8.12h1.348l3.7-6.566v-.952h.793v-1.153h.925v-.802h1.189v-.777h-1.163V6.014h-.872v1.654h-1.137v.602h-.58v1.002h-.688l-3.092 5.739c.026 0-3.489-3.784-4.969-4.586z" fill="#000" fill-rule="nonzero"/><path fill="#000" fill-rule="nonzero" d="M18.817 7.167h2.326V8.27h-2.326z"/><path fill="#000" fill-rule="nonzero" d="M19.98 4.937h.581v4.41h-.581z"/><path fill="#000" fill-rule="nonzero" d="M18.817 5.488h2.194v.576h-2.194z"/><path fill="#000" fill-rule="nonzero" d="M19.98 4.937h1.163v3.308H19.98z"/><path fill="#000" fill-rule="nonzero" d="M20.561 6.064h1.48v1.354h-1.48z"/><path fill="#154163" fill-rule="nonzero" d="M20.773 6.064h2.378v.42h-2.378z"/><path d="M22.306 4.937h.872V6.34h-.872V4.937zm-1.163-.802h1.163v.852h-1.163v-.852zm-.872-.802h.872v.827h-.872v-.827zm2.035-.827h.872v1.629h-.872v-1.63z" fill="#000" fill-rule="nonzero"/><path d="M23.151 4.135h.872v.827h-.872v-.827zm.872-.827h1.163v.802h-1.163v-.802zm-.872-1.629h2.009v.802h-2.01v-.802zm2.035-.852h.872v.877h-.872V.827z" fill="#000" fill-rule="nonzero"/><path d="M23.151 2.506h.872v.802h-.872v-.802zm2.907-.852h.873v.802h-.873v-.802zm0-1.629h.873v.802h-.873V.025z" fill="#FFB518" fill-rule="nonzero"/></g><path d="M27 6.475h1.754l3.189 5.255V6.475h1.559v7.528h-1.673l-3.27-5.347v5.347H27V6.475zm11.45 6.047c.242-.303.364-.734.364-1.292 0-.559-.122-.989-.364-1.29-.243-.301-.59-.452-1.043-.452-.453 0-.801.15-1.046.452-.244.301-.367.731-.367 1.29 0 .558.123.989.367 1.292.245.303.593.454 1.046.454.452 0 .8-.151 1.043-.454zm1.238.804c-.5.58-1.258.87-2.276.87-1.017 0-1.776-.29-2.276-.87-.5-.58-.75-1.28-.75-2.096 0-.804.25-1.5.75-2.09.5-.588 1.259-.883 2.276-.883 1.018 0 1.776.295 2.276.884.5.589.75 1.285.75 2.089 0 .817-.25 1.516-.75 2.096zm5.216-4.835V9.56c-.097-.01-.493 0-.54 0-.623 0-1.068.41-1.282.791-.12.215-.179.545-.179.991v2.66h-1.559V8.437l1.128.016.35.954a1.97 1.97 0 0 1 .746-.674c.37-.188.765-.24.98-.24.03 0 .288-.004.356 0zm-.01 1.065l.002-1.069h.826l.356-1.546 1.175-.006v1.552h.962v1.037h-.962v2.942c0 .228.031.37.093.426.061.056.25.084.565.084a4.62 4.62 0 0 0 .304-.01v1.088l-.734.025c-.731.024-1.23-.095-1.499-.357-.174-.167-.26-.424-.26-.771l-.001-3.395h-.826zm7.829 2.966c.242-.303.363-.734.363-1.292 0-.559-.12-.989-.363-1.29-.243-.301-.59-.452-1.043-.452-.453 0-.802.15-1.046.452-.244.301-.367.731-.367 1.29 0 .558.123.989.367 1.292.244.303.593.454 1.046.454.452 0 .8-.151 1.043-.454zm1.238.804c-.5.58-1.258.87-2.276.87-1.018 0-1.776-.29-2.276-.87-.5-.58-.75-1.28-.75-2.096 0-.804.25-1.5.75-2.09.5-.588 1.258-.883 2.276-.883 1.018 0 1.776.295 2.276.884.5.589.75 1.285.75 2.089 0 .817-.25 1.516-.75 2.096zm6.455-4.57c.39.3.584.8.584 1.498v3.749h-1.586v-3.386c0-.293-.042-.518-.125-.674-.152-.286-.442-.43-.87-.43-.524 0-.885.21-1.08.629-.101.221-.152.504-.152.848v3.013h-1.543V8.446h1.19l.304.812c.2-.286.387-.492.565-.618.319-.224.722-.337 1.211-.337.612 0 1.113.15 1.502.452z" fill="#FFF" fill-rule="nonzero"/><path d="M27.94 17.093c-1.003 0-1.733.508-1.733 1.278 0 .703.465 1.091 1.535 1.393.796.22 1.01.394 1.01.783 0 .448-.39.69-.937.69-.531 0-.937-.175-1.306-.463l-.509.509c.42.375 1.026.636 1.837.636 1.218 0 1.934-.59 1.934-1.42 0-.87-.62-1.204-1.513-1.458-.849-.241-1.048-.389-1.048-.723 0-.362.332-.55.79-.55.42 0 .775.121 1.144.396l.48-.502c-.444-.369-.938-.57-1.683-.57zm6.485.1h-2.96v4.626h2.99v-.663H32.44v-1.359h1.638v-.656H32.44v-1.292h1.881l.104-.656zm3.746-.1c-1.24 0-2.214.85-2.214 2.403 0 1.573.923 2.423 2.243 2.423.694 0 1.225-.275 1.535-.562l-.457-.536c-.295.2-.598.388-1.033.388-.73 0-1.262-.495-1.262-1.713 0-1.252.546-1.72 1.247-1.72.354 0 .657.113.945.334l.501-.529c-.413-.314-.834-.488-1.505-.488zm6.838.1h-.981v3.066c0 .65-.288.97-.923.97-.627 0-.915-.32-.915-.97v-3.066h-.974v3.113c0 .95.635 1.613 1.89 1.613 1.246 0 1.903-.683 1.903-1.613v-3.113zm4.706 4.626h1.121l-1.335-2.015c.693-.248 1.033-.616 1.033-1.252 0-.917-.687-1.359-2.022-1.359h-1.52v4.626h.974v-1.855h.62l1.129 1.855zm-1.75-3.983h.525c.708 0 1.025.214 1.025.716 0 .556-.34.776-.944.776h-.605v-1.492zm7.355-.643h-2.959v4.626h2.989v-.663h-2.015v-1.359h1.639v-.656h-1.639v-1.292h1.882l.103-.656zm3.068 0h-1.255v4.626h1.388c1.217 0 2.479-.462 2.479-2.337 0-1.914-1.27-2.289-2.612-2.289zm.17.663c.752 0 1.416.234 1.416 1.626 0 1.366-.627 1.674-1.387 1.674h-.48v-3.3h.45z" fill="#989898" fill-rule="nonzero"/><path d="M64.595 3.524v.274h-.644v2.033h-.264V3.798h-.644v-.274h1.552zm.23 0h.372l.55 1.95.545-1.95h.367V5.83h-.246V4.47c0-.047 0-.125.002-.234.002-.109.003-.225.003-.35l-.546 1.946h-.256l-.55-1.946v.07c0 .057.001.143.004.259l.003.255v1.362h-.247V3.524z" fill="#000"/></g></svg>