<svg width="50" height="45" xmlns="http://www.w3.org/2000/svg"><g fill="#870202"><path d="M46.387 21.35c-.706 0-1.365.206-1.922.562-.634-1.832-2.356-3.15-4.377-3.15H16.943a4.58 4.58 0 0 0-2.97 1.094c-.637-1.728-2.283-2.962-4.207-2.962-.942 0-1.817.296-2.54.8v-9.03C7.227 6.643 5.607 5 3.614 5S0 6.643 0 8.663V44.01c0 .547.437.99.977.99H6.25c.54 0 .977-.443.977-.99v-4.357h14.16c.54 0 .976-.443.976-.99a.983.983 0 0 0-.976-.99H7.227v-11.67h5.078v4.76c0 .82.441 1.573 1.151 1.966.71.392 1.574.36 2.255-.086l.024-.016a2.46 2.46 0 0 1 2.684-.005l.08.052a4.396 4.396 0 0 0 4.796-.01l.057-.037a2.46 2.46 0 0 1 2.685-.005l.08.052a4.396 4.396 0 0 0 4.796-.01l.057-.037a2.46 2.46 0 0 1 2.684-.005l.08.052a4.39 4.39 0 0 0 4.795-.009l.058-.038a2.461 2.461 0 0 1 2.685-.005l.056.037c.437.283.948.396 1.445.337v4.677H28.647a.983.983 0 0 0-.977.99c0 .547.438.99.977.99h14.126v4.357c0 .547.438.99.977.99h5.273c.54 0 .977-.443.977-.99V25.013c0-2.02-1.62-3.664-3.613-3.664zM5.273 25.012V43.02h-3.32V8.663c0-.928.745-1.683 1.66-1.683.916 0 1.66.755 1.66 1.683v16.35zm4.493-.99c-1.4 0-2.54-1.155-2.54-2.575 0-1.42 1.14-2.574 2.54-2.574 1.4 0 2.539 1.155 2.539 2.574 0 1.42-1.14 2.574-2.54 2.574zm33.008-.508h-9.726a.983.983 0 0 0-.977.99c0 .547.437.99.977.99h9.725v5.278a.246.246 0 0 1-.132.227.24.24 0 0 1-.26-.01l-.057-.036a4.395 4.395 0 0 0-4.796.01l-.057.037a2.46 2.46 0 0 1-2.684.005l-.08-.052a4.396 4.396 0 0 0-4.796.01l-.057.037a2.46 2.46 0 0 1-2.684.005l-.08-.052a4.39 4.39 0 0 0-4.796.01l-.057.037a2.46 2.46 0 0 1-2.684.005l-.08-.052a4.396 4.396 0 0 0-4.797.01l-.025.016a.24.24 0 0 1-.26.01.246.246 0 0 1-.133-.227v-7.298c0-1.501 1.205-2.722 2.685-2.722h23.145c1.48 0 2.686 1.221 2.686 2.722v.05zm5.273 19.505h-3.32V25.013c0-.929.744-1.684 1.66-1.684.915 0 1.66.755 1.66 1.684V43.02z"/><path d="M26.56 37.44A1.511 1.511 0 0 0 25.5 37a1.504 1.504 0 0 0-1.5 1.5 1.504 1.504 0 0 0 1.5 1.5c.395 0 .782-.16 1.06-.44A1.51 1.51 0 0 0 27 38.5c0-.395-.16-.782-.44-1.06zm8.359-31.602H31.69l3.992-3.992A1.081 1.081 0 0 0 34.92 0h-5.84a1.081 1.081 0 1 0 0 2.162h3.228l-3.992 3.992A1.081 1.081 0 0 0 29.08 8h5.838a1.081 1.081 0 1 0 0-2.162zm-9.086 3.829h-1.85l2.675-2.675A1.167 1.167 0 0 0 25.833 5h-4.666a1.167 1.167 0 1 0 0 2.333h1.85l-2.675 2.675A1.167 1.167 0 0 0 21.167 12h4.666a1.167 1.167 0 1 0 0-2.333zm-8.795 3.41h-.755l1.435-1.436a.962.962 0 0 0-.68-1.641h-3.076a.962.962 0 1 0 0 1.923h.755l-1.435 1.436a.962.962 0 0 0 .68 1.641h3.076a.962.962 0 1 0 0-1.923zM30.562 23.44A1.51 1.51 0 0 0 29.5 23a1.504 1.504 0 0 0-1.5 1.5 1.504 1.504 0 0 0 1.5 1.5c.395 0 .782-.16 1.062-.44A1.51 1.51 0 0 0 31 24.5a1.51 1.51 0 0 0-.438-1.06z"/></g></svg>