<svg width="139" height="107" xmlns="http://www.w3.org/2000/svg"><g fill="none" fill-rule="evenodd"><path fill="#600707" d="M0 84h130v23H0z"/><path d="M10.196 38.715a17.9 17.9 0 0 0 5.305.786c3.674 0 6.452-1.105 8.335-3.315 1.883-2.21 2.779-5.319 2.687-9.328-2.434 3.462-6.177 5.194-11.23 5.194-3.076 0-5.763-.65-8.06-1.948-2.296-1.299-4.075-3.121-5.338-5.467C.63 22.29 0 19.568 0 16.47c0-3.326.735-6.23 2.205-8.713 1.47-2.483 3.536-4.397 6.2-5.741C11.069.672 14.169 0 17.705 0c4.225 0 7.877.957 10.954 2.87 3.077 1.914 5.442 4.647 7.096 8.201 1.653 3.554 2.48 7.768 2.48 12.643 0 5.057-.907 9.5-2.722 13.326-1.814 3.828-4.374 6.778-7.68 8.85C24.524 47.965 20.666 49 16.257 49c-2.663 0-5.373-.364-8.129-1.093-2.755-.73-5.144-1.686-7.165-2.87l4.616-8.612a15.59 15.59 0 0 0 4.616 2.29zm2.962-27.131c-1.194 1.161-1.79 2.813-1.79 4.954 0 2.05.573 3.657 1.721 4.818 1.149 1.162 2.779 1.743 4.892 1.743 2.296 0 4.076-.626 5.339-1.88 1.263-1.252 1.894-2.881 1.894-4.886 0-1.868-.597-3.417-1.791-4.647-1.194-1.23-2.94-1.845-5.236-1.845-2.158 0-3.835.58-5.029 1.743zm36.834 22.142c.811.873 1.217 2.046 1.217 3.52 0 1.488-.406 2.669-1.217 3.542-.811.873-1.906 1.31-3.284 1.31s-2.476-.437-3.295-1.31c-.82-.873-1.229-2.054-1.229-3.543 0-1.473.41-2.646 1.229-3.52.819-.872 1.917-1.309 3.295-1.309s2.473.437 3.284 1.31zm-4.685 1.583c-.336.47-.505 1.116-.505 1.936 0 .82.169 1.466.505 1.937.337.47.804.706 1.401.706s1.064-.235 1.401-.706c.337-.471.505-1.116.505-1.937 0-.82-.168-1.465-.505-1.936-.337-.47-.804-.706-1.4-.706-.598 0-1.065.235-1.402.706zm12.056-2.825h2.825l-11.436 15.97h-2.847l11.458-15.97zm5.42 7.689c.811.873 1.217 2.046 1.217 3.52 0 1.488-.406 2.668-1.217 3.542-.811.873-1.906 1.31-3.284 1.31s-2.476-.437-3.295-1.31c-.82-.874-1.229-2.054-1.229-3.543 0-1.473.41-2.646 1.229-3.52.819-.873 1.917-1.31 3.295-1.31s2.473.437 3.284 1.31zm-4.685 1.583c-.336.47-.505 1.116-.505 1.936 0 .82.169 1.466.505 1.937.337.47.804.706 1.401.706s1.064-.236 1.4-.706c.338-.471.506-1.117.506-1.937 0-.82-.168-1.465-.505-1.936-.337-.47-.804-.706-1.4-.706-.598 0-1.065.235-1.402.706z" fill="#4A9704"/><path d="M8.08 61.266v6.468c0 .656-.156 1.23-.467 1.725-.31.494-.745.874-1.303 1.14-.559.268-1.203.401-1.934.401a5.475 5.475 0 0 1-1.65-.25 5.128 5.128 0 0 1-1.398-.668l.78-1.614c.311.219.647.39 1.008.512s.727.183 1.096.183c.504 0 .903-.122 1.197-.367.294-.245.44-.577.44-.997v-.76c-.453.62-1.1.93-1.94.93a2.717 2.717 0 0 1-1.504-.426 2.848 2.848 0 0 1-1.033-1.206C1.124 65.817 1 65.219 1 64.546c0-.665.12-1.25.359-1.758.24-.507.577-.9 1.014-1.18.437-.28.932-.42 1.486-.42.42 0 .8.08 1.14.242.34.162.624.396.85.702v-.866h2.23zm-2.608 4.54c.252-.307.378-.705.378-1.194 0-.499-.126-.901-.378-1.207a1.226 1.226 0 0 0-.995-.46c-.412 0-.746.156-1.002.466-.256.31-.384.71-.384 1.2s.128.888.384 1.194c.256.306.59.46 1.002.46.411 0 .743-.154.995-.46zm9.8-3.595c.596.682.894 1.618.894 2.807 0 .184-.004.324-.012.42h-4.737c.11.402.299.71.567.925.269.214.597.321.983.321.294 0 .577-.061.85-.183.273-.123.523-.302.75-.538l1.171 1.22a3.459 3.459 0 0 1-1.278.938c-.5.214-1.065.321-1.695.321-.73 0-1.369-.149-1.914-.446a3.037 3.037 0 0 1-1.254-1.26c-.29-.542-.434-1.171-.434-1.888 0-.726.147-1.367.44-1.922.294-.556.71-.984 1.248-1.286.537-.301 1.158-.452 1.864-.452 1.108 0 1.96.34 2.557 1.023zm-1.285 1.98c0-.41-.115-.74-.346-.99-.231-.249-.536-.374-.913-.374-.353 0-.65.123-.889.368s-.396.577-.472.997h2.62zm7.76 3.805a3.296 3.296 0 0 1-.87.348 4.03 4.03 0 0 1-.995.124c-.671 0-1.215-.2-1.63-.603-.417-.403-.624-.958-.624-1.666v-3.044h-.945v-1.548h.945V59.64h2.23v1.967h1.763v1.548h-1.764v2.676c0 .499.198.748.592.748.244 0 .534-.078.87-.236l.428 1.653zm10.235-6.087c.449.49.673 1.15.673 1.981v4.473h-2.242V64.56c0-.402-.103-.72-.308-.951-.206-.232-.49-.348-.85-.348-.412.01-.738.16-.977.453-.24.293-.359.675-.359 1.148v3.502h-2.242V58.63h2.242v3.79c.244-.41.556-.72.939-.93a2.69 2.69 0 0 1 1.316-.315c.756 0 1.358.244 1.808.734zm2.185-.643h2.23v7.097h-2.23v-7.097zm1.946-2.918c.223.231.334.53.334.898 0 .359-.111.656-.334.892a1.117 1.117 0 0 1-.85.354c-.344 0-.628-.118-.85-.354-.223-.236-.334-.533-.334-.892 0-.367.111-.667.334-.898.222-.232.506-.348.85-.348s.628.116.85.348zm5.152 3.155c.374-.22.8-.328 1.279-.328v2.138a3.225 3.225 0 0 0-.34-.013c-.53 0-.958.129-1.285.387-.328.258-.517.61-.567 1.056v3.62H38.11v-7.097h2.242v1.181c.235-.411.54-.726.913-.944zm7.817.708c.596.682.894 1.618.894 2.807 0 .184-.004.324-.013.42h-4.736c.11.402.298.71.567.925.269.214.596.321.982.321.294 0 .578-.061.85-.183.274-.123.523-.302.75-.538l1.172 1.22a3.459 3.459 0 0 1-1.279.938c-.5.214-1.064.321-1.694.321-.73 0-1.369-.149-1.915-.446a3.037 3.037 0 0 1-1.253-1.26c-.29-.542-.435-1.171-.435-1.888 0-.726.147-1.367.441-1.922a3.11 3.11 0 0 1 1.247-1.286c.538-.301 1.159-.452 1.864-.452 1.109 0 1.961.34 2.558 1.023zm-1.285 1.98c0-.41-.116-.74-.347-.99-.23-.249-.535-.374-.913-.374-.353 0-.649.123-.888.368-.24.245-.397.577-.472.997h2.62zM58 58.63v9.733h-2.242v-.918a2.329 2.329 0 0 1-.863.754c-.34.17-.724.256-1.153.256-.63 0-1.184-.153-1.662-.459a3.047 3.047 0 0 1-1.115-1.292c-.265-.555-.397-1.196-.397-1.922 0-.717.13-1.347.39-1.889a2.97 2.97 0 0 1 1.096-1.26c.47-.297 1.016-.445 1.638-.445.437 0 .83.087 1.178.262.348.175.644.424.888.748V58.63H58zm-2.645 7.497c.268-.328.403-.755.403-1.28 0-.533-.135-.961-.403-1.285a1.309 1.309 0 0 0-1.058-.485 1.32 1.32 0 0 0-1.065.492c-.273.328-.41.754-.41 1.279 0 .524.137.95.41 1.279a1.32 1.32 0 0 0 1.065.492c.436 0 .789-.164 1.058-.492z" fill="#314B57"/><g fill-rule="nonzero"><g transform="translate(111.526 8)"><ellipse fill="#EC7D42" cx="13.737" cy="13.342" rx="13.737" ry="13.342"/><ellipse fill="#FFF" cx="13.737" cy="13.659" rx="9.264" ry="9.212"/><ellipse fill="#EC7D42" cx="13.737" cy="13.659" rx="4.153" ry="4.13"/><path d="M13.65 14.612a.871.871 0 0 1-.616-.254.862.862 0 0 1 0-1.225l7.841-7.797a.874.874 0 0 1 1.232 0c.34.339.34.887 0 1.225l-7.841 7.797a.87.87 0 0 1-.616.254z" fill="#5C414B"/><path d="M19.807 4.921V6.19c0 .442.4.8.893.8h1.416a.949.949 0 0 0 .632-.235l3.29-2.944c.337-.302.098-.818-.38-.818h-1.385v-1.24c0-.428-.577-.642-.915-.34l-3.29 2.944a.759.759 0 0 0-.261.565z" fill="#FFDC64"/><path d="M24.28 1.772c0-.446-.579-.669-.917-.354l-3.294 3.07a.806.806 0 0 0-.262.59v1.321c0 .23.1.439.262.59l4.21-3.924V1.772z" fill="#FFC850"/></g><g transform="translate(81 8)"><path d="M37.546 20.849v-4.456C37.546 7.81 31.01.422 22.514.018c-9.071-.43-16.56 6.864-16.56 15.925v4.906c0 8.253-1.358 13.078-2.044 14.987-.204.569.04 1.198.57 1.483 2.421 1.3 9.018 4.625 14.84 5.605h4.86c5.822-.98 12.419-4.305 14.84-5.605.53-.285.774-.914.57-1.483-.685-1.91-2.044-6.734-2.044-14.987z" fill="#5C414B"/><path d="M5.925 16.11v4.918c0 8.276-1.34 13.113-2.016 15.028a1.233 1.233 0 0 0 .568 1.49c2.229 1.215 8.016 4.182 13.435 5.378V18.569l-2.398-2.46c-3.987-4.09-4.257-9.257-3.993-12.265C8.102 6.776 5.925 11.18 5.925 16.11z" fill="#503441"/><path fill="#E6AF78" d="M15.993 33.955h12.154v16.016H15.993z"/><path d="M39.183 45.845l-6.453-2.921-8.622 3.701-1.416 2.162a1.2 1.2 0 0 1-2.016 0l-1.416-2.162-8.49-3.701-6.453 2.92c-2.692 1.22-4.396 3.972-4.314 6.97L.64 76.238h42.22l.637-23.424c.082-2.998-1.622-5.75-4.314-6.97z" fill="#4A636F"/><path d="M8.316 55.185l-6.244-7.777a7.398 7.398 0 0 0-2.07 5.32l.654 23.51h7.66V55.185zm26.868 0l6.244-7.777a7.398 7.398 0 0 1 2.07 5.32l-.654 23.51h-7.66V55.185z" fill="#8B9AA2"/><path d="M15.993 37.676c1.86.9 3.92 1.404 6.077 1.404 2.158 0 4.218-.503 6.077-1.404v-3.721H15.993v3.721z" fill="#D29B6E"/><path d="M33.38 28.123c.316-.992.495-2.028.522-3.068.181-7.056-9.726-5.404-17.866-10.746-.567-.372-1.323-.254-1.71.302-1.287 1.846-2.743 3.305-3.601 4.093a2.458 2.458 0 0 1-1.667.649h-.886a2.41 2.41 0 0 0-.413.044c-1.196.23-2.002 1.373-2.002 2.588v.887c0 1.173.753 2.28 1.898 2.546.258.06.509.076.75.057.61-.048 1.144.395 1.254.997a12.274 12.274 0 0 0 12.078 10.045c5.124 0 9.497-3.134 11.34-7.58.088-.217.285-.761.303-.814z" fill="#F0C087"/><path d="M14.126 25.275v-9.9c-1.26 1.908-2.695 3.416-3.537 4.228a2.328 2.328 0 0 1-1.62.662h-.863a2.24 2.24 0 0 0-.401.045c-1.164.236-1.948 1.4-1.948 2.642v.908c0 1.198.732 2.328 1.846 2.6.25.062.495.079.729.06.594-.05 1.113.403 1.22 1.017 1.016 5.836 5.883 10.261 11.747 10.261.812 0 1.603-.092 2.37-.254-5.446-1.17-9.543-6.218-9.543-12.27z" fill="#E6AF78"/><path d="M12.713 47.817l-2.377-4.76 2.68-2.292a1.231 1.231 0 0 1 1.8.218l4.149 5.777-2.568 1.928a2.464 2.464 0 0 1-3.684-.87zm17.434 0l2.377-4.76-2.68-2.292a1.231 1.231 0 0 0-1.8.218l-4.149 5.777 2.568 1.928a2.464 2.464 0 0 0 3.684-.87z" fill="#8B9AA2"/><path d="M35.005 76.238H7.855c-1.293 0-2.363-1.027-2.439-2.342L4.482 57.73c-.082-1.428 1.033-2.633 2.439-2.633h29.018c1.406 0 2.522 1.205 2.44 2.633l-.935 16.167c-.076 1.315-1.145 2.342-2.439 2.342z" fill="#DBD9DC"/><ellipse fill="#FFF" cx="21.75" cy="64.065" rx="3.199" ry="3.203"/></g></g></g></svg>